<?xml version="1.0" encoding="utf-8"?>
<!-- Generator: Adobe Illustrator 27.9.3, SVG Export Plug-In . SVG Version: 9.03 Build 53313)  -->
<svg version="1.1" xmlns="http://www.w3.org/2000/svg" xmlns:xlink="http://www.w3.org/1999/xlink" x="0px" y="0px"
	 viewBox="0 0 856.6 375" style="enable-background:new 0 0 856.6 375;" xml:space="preserve">
<style type="text/css">
	.st0{fill:none;}
	.st1{fill:#009BE0;}
</style>
<g id="Capa_2_00000162311609055698654420000006712717795711251381_">
	<g>
		<path class="st0" d="M285.9,197.7c-2.5,6.8-3.9,14.1-3.9,21.8c0,7.5,1.3,14.7,3.8,21.4c1.2-7.2,1.9-14.5,1.9-22
			C287.6,211.6,287.1,204.5,285.9,197.7z"/>
		<path class="st0" d="M304.6,267.5c10.8,9,24.8,14.5,39.9,14.5c34.5,0,62.5-28,62.5-62.5c0-34.5-28-62.5-62.5-62.5
			c-15,0-28.8,5.3-39.6,14.2c4.8,15,7.4,31,7.4,47.7C312.4,235.8,309.6,252.1,304.6,267.5z"/>
		<path class="st0" d="M276.2,165.2c-20.5-45.9-66.6-77.9-120-77.9c-72.5,0-131.5,59-131.5,131.5s59,131.4,131.5,131.4
			c53.1,0,98.9-31.6,119.6-77c-11.6-14.8-18.6-33.5-18.6-53.8C257.3,199,264.4,180.1,276.2,165.2z"/>
		<path class="st1" d="M275.8,273.2c-20.7,45.4-66.6,77-119.6,77c-72.5,0-131.5-59-131.5-131.4s59-131.5,131.5-131.5
			c53.4,0,99.5,32,120,77.9c5.4-6.8,11.8-12.8,18.9-17.7c-25.9-50.4-78.5-84.9-139-84.9C70.1,62.6,0,132.6,0,218.8
			S70.1,375,156.2,375v0c60.1,0,112.3-34.1,138.5-84C287.5,286,281.2,280,275.8,273.2z"/>
		<path class="st1" d="M285.9,197.7c-1.8-11.4-5.1-22.3-9.7-32.5c-11.9,14.9-18.9,33.8-18.9,54.2c0,20.3,6.9,38.9,18.6,53.8
			c4.6-10.2,8-21,9.9-32.4c-2.4-6.7-3.8-13.9-3.8-21.4C282,211.8,283.4,204.4,285.9,197.7z"/>
		<path class="st1" d="M344.5,132.2c-18.3,0-35.3,5.7-49.4,15.4c3.9,7.5,7.1,15.4,9.8,23.6c10.8-8.9,24.6-14.2,39.6-14.2
			c34.5,0,62.5,28,62.5,62.5c0,34.5-28,62.5-62.5,62.5c-15.2,0-29.1-5.4-39.9-14.5c-2.7,8.2-6,16-9.9,23.5
			c14.2,9.9,31.4,15.7,49.9,15.7c48.1,0,87.3-39.1,87.3-87.3S392.7,132.2,344.5,132.2z"/>
		<path class="st1" d="M285.8,240.8c-1.9,11.4-5.3,22.2-9.9,32.4c5.3,6.8,11.7,12.8,18.8,17.8c3.9-7.5,7.3-15.4,9.9-23.5
			C296.2,260.5,289.6,251.3,285.8,240.8z"/>
		<path class="st1" d="M276.2,165.2c4.6,10.2,7.9,21.1,9.7,32.5c3.9-10.5,10.5-19.6,19-26.6c-2.6-8.2-5.9-16.1-9.8-23.6
			C288,152.4,281.6,158.4,276.2,165.2z"/>
	</g>
	<path class="st1" d="M560.3,297.6c0,3.9-1.4,6.9-4.3,8.9c-2.8,2-7.1,2.7-12.8,2.2l-9.2-0.7c-18.2-1.4-31.6-6.9-40.3-16.6
		s-13-24.4-13-44.1v-87.1H458c-3.9,0-6.9-1-9-2.9c-2.2-2-3.2-4.6-3.2-7.8c0-3.5,1.1-6.2,3.2-8.3s5.2-3.1,9-3.1h22.9V98.7
		c0-4.4,1.2-7.8,3.8-10.2c2.5-2.4,5.9-3.6,10.2-3.6c4.1,0,7.4,1.2,9.9,3.6c2.5,2.4,3.8,5.8,3.8,10.2v39.2h37.9
		c3.6,0,6.5,1.1,8.7,3.1c2.2,2.1,3.2,4.9,3.2,8.3c0,3.2-1.1,5.9-3.2,7.8c-2.2,2-5.1,2.9-8.7,2.9h-37.9v88.5
		c0,12.7,2.6,21.9,7.7,27.6c5.1,5.7,12.8,8.9,23,9.5l9.2,0.7C556.4,287.1,560.4,290.9,560.3,297.6L560.3,297.6z"/>
	<path class="st1" d="M124.6,294.9c-10.5-3.5-18.9-8.2-25.2-14.1c-2.3-2.2-3.4-4.9-3.4-8.2c0-2.2,0.6-4.1,1.8-5.7
		c1.2-1.6,2.7-2.5,4.4-2.5c2,0,4.1,0.9,6.4,2.6c14.3,11.2,30.5,16.9,48.8,16.9c13.2,0,23.3-2.6,30.4-7.7s10.6-12.5,10.6-22
		c0-5.4-1.7-9.9-5.1-13.2c-3.4-3.4-7.8-6-13.3-8.1c-5.5-2-13-4.1-22.3-6.3c-12.6-3-22.9-6.1-30.9-9.4s-14.6-8-19.6-14
		c-5-6.1-7.5-14-7.5-23.9s2.5-17.7,7.5-24.9c5-7.2,12-12.9,20.9-16.8s19.2-6,30.7-6c10.7,0,20.7,1.7,30,5
		c9.3,3.4,17.1,8.1,23.4,14.4c2.4,2.5,3.7,5.2,3.7,8.2c0,2.2-0.6,4.1-1.8,5.7c-1.2,1.6-2.7,2.5-4.4,2.5s-3.9-0.9-6.7-2.6
		c-7.5-6.2-14.5-10.6-20.9-13.1c-6.4-2.5-14.2-3.8-23.2-3.8c-12.7,0-22.6,2.7-29.7,8.1c-7.1,5.4-10.6,12.9-10.6,22.6
		c0,8.3,3.1,14.5,9.3,18.6s15.7,7.8,28.6,10.9c13.9,3.4,24.9,6.6,32.9,9.5c8,2.9,14.6,7.2,19.9,13s7.9,13.5,7.9,23.2
		s-2.5,17.3-7.5,24.3c-5,7-12,12.5-21.1,16.4s-19.4,5.9-31.1,5.9S135.1,298.4,124.6,294.9L124.6,294.9z"/>
	<path class="st1" d="M609.2,102.7c-3.4-3.2-5.1-7.5-5.1-12.8s1.7-9.2,5.1-12.5s7.8-4.9,13.3-4.9s9.9,1.6,13.3,4.9
		c3.4,3.2,5.1,7.4,5.1,12.5s-1.7,9.6-5.1,12.8c-3.4,3.2-7.8,4.9-13.3,4.9S612.6,105.9,609.2,102.7z M612.5,308.3
		c-2.6-2.4-3.9-5.8-3.9-10.2V151.7c0-4.4,1.3-7.8,3.9-10.2c2.6-2.4,6-3.6,10.1-3.6s7.4,1.2,9.9,3.6s3.8,5.9,3.8,10.2v146.4
		c0,4.6-1.2,8.1-3.8,10.4s-5.8,3.5-9.9,3.5S615.1,310.8,612.5,308.3z"/>
	<path class="st1" d="M769.3,306c-48.1,0-87.3-39.1-87.3-87.3s39.2-87.3,87.3-87.3s87.3,39.1,87.3,87.3S817.4,306,769.3,306z
		 M769.3,156.2c-34.5,0-62.5,28.1-62.5,62.5s28,62.5,62.5,62.5s62.5-28.1,62.5-62.5S803.8,156.2,769.3,156.2z"/>
</g>
<g id="Capa_3">
</g>
</svg>
