<?xml version="1.0" encoding="UTF-8"?>
<svg id="Capa_1" data-name="Capa 1" xmlns="http://www.w3.org/2000/svg" viewBox="0 0 122.15 120.24">
  <defs>
    <style>
      .cls-1 {
        fill: none;
        stroke: #fff;
        stroke-miterlimit: 10;
      }

      .cls-2 {
        fill: #fff;
        stroke-width: 0px;
      }
    </style>
  </defs>
  <circle class="cls-2" cx="60.23" cy="61.22" r="4.73"/>
  <path class="cls-2" d="M60.23,47.69c-7.47,0-13.53,6.06-13.53,13.53s6.06,13.53,13.53,13.53,13.53-6.06,13.53-13.53-6.06-13.53-13.53-13.53ZM60.23,69.03c-4.31,0-7.81-3.5-7.81-7.81s3.5-7.81,7.81-7.81,7.81,3.5,7.81,7.81-3.5,7.81-7.81,7.81Z"/>
  <circle class="cls-1" cx="60.23" cy="61.22" r="16.63"/>
  <path class="cls-2" d="M32.94,58.35c.08-.49.2-1.21.32-1.92q.62-3.55,4.11-3.96c2.65-.31,3.53-2.3,2.02-4.56-.51-.76-1.01-1.53-1.59-2.41.41-.56.81-1.15,1.26-1.71q2.51-3.1,6.01-1.34c1.83.92,3.82-.4,3.76-2.49-.11-3.79-.09-3.72,3.4-4.91,1.67-.57,2.68-.32,3.56,1.3.49.91,1.39,1.92,2.32,2.21,1.63.51,2.66-.49,3.26-2.1.31-.83,1.07-2.16,1.58-2.14,1.79.08,3.6.54,5.32,1.13.32.11.14,1.47.35,2.2.29,1.03.5,2.23,1.16,2.99,1.11,1.27,2.37.83,3.68-.13,2.32-1.71,2.39-1.65,4.54.22.78.68,1.5,1.44,2.36,2.26-.44.9-.77,1.82-1.3,2.6-.76,1.12-.88,2-.08,3.28.87,1.39,1.93,1.24,3.14,1.12.85-.08,1.7-.17,2.6-.26.26.63.51,1.18.73,1.75q1.46,3.82-1.85,6.16c-1.62,1.15-1.47,3.52.28,4.43,3.54,1.83,3.48,1.82,2.57,5.69-.37,1.56-1.01,2.25-2.72,2.13-1.08-.07-2.4-.57-3.25.94-.79,1.4-.85,2.48.2,3.77.6.74,1.44,2.13,1.16,2.59-.96,1.52-2.28,2.86-3.68,4.01-.31.26-1.54-.44-2.25-.86-1.27-.77-2.32-1.16-3.78-.11-1.36.98-1.13,2.15-.86,3.25.5,2-.24,2.92-2.13,3.32-1.19.25-2.33.68-3.57,1.05-.61-.93-1.29-1.75-1.71-2.68-.64-1.41-1.73-1.4-3.02-1.4-1.34,0-1.51.98-1.99,1.8-.53.91-1.17,2.5-1.74,2.49-1.79-.02-3.64-.49-5.3-1.17-.44-.18-.37-1.76-.43-2.7-.07-1.1-.02-2.03-1.28-2.74-1.41-.79-2.31-.44-3.45.37-2.42,1.72-2.46,1.68-4.69-.3-.5-.45-1.11-.86-1.41-1.43-.29-.52-.42-1.27-.3-1.85.15-.69.65-1.3.98-1.96,1.05-2.03-.24-4.03-2.56-3.93q-3.61.15-4.67-3.37c-.21-.7-.4-1.41-.59-2.08.97-1.84,4.14-1.44,4.05-4.42-.1-3.06-3.08-2.3-4.49-4.13ZM43.75,60.88c-.2,8.85,6.99,16.42,15.74,16.56,9.14.15,16.62-6.93,16.81-15.9.19-8.92-7.01-16.48-15.88-16.68-9.02-.21-16.46,6.94-16.67,16.02Z"/>
  <path class="cls-2" d="M6.52,40.71h12.13c7.2-15.01,21.9-25,38.35-26.02,24.35-1.52,38.76,17.48,39.72,18.78-4.29,3.26-8.58,6.52-12.87,9.78l38.3,20.15-5.28-45.2-11.35,9C95.2,10.06,76.87-.46,57.59.02,34.36.59,13.45,17.01,6.52,40.71Z"/>
  <path class="cls-2" d="M30.26,94.32l9.91-9.78L0,73.32l14.35,39,7.57-8.74c14.65,14.65,35.83,20.24,54.91,14.35,23.85-7.36,32.99-29.12,34.17-32.09-4.22-.09-8.43-.17-12.65-.26-1.19,2.18-10.11,17.87-29.22,21.52-22.18,4.24-37.79-11.65-38.87-12.78Z"/>
</svg>