<?xml version="1.0" encoding="UTF-8"?>
<svg id="Capa_1" data-name="Capa 1" xmlns="http://www.w3.org/2000/svg" viewBox="0 0 110.38 111.37">
  <defs>
    <style>
      .cls-1 {
        fill: #fff;
        stroke-width: 0px;
      }
    </style>
  </defs>
  <path class="cls-1" d="M2.41,72.71c1.41,3.85,5.64,5.79,9.2,4.5,3.18-1.15,5.18-4.64,4.5-8.22-1.2-3.7-4.62-15.84.69-29.53,3.77-9.72,10.14-15.58,13.4-18.2v13.7c.42,2.87,2.55,5.09,5.09,5.48,3.16.48,6.51-1.96,7.04-5.67,1.63-9.2,3.26-18.39,4.89-27.59-.07-.4-.54-2.71-2.74-4.11-2.71-1.72-5.63-.5-5.87-.39-3.47,1.21-24.94,9.07-34.43,32.09-7.21,17.47-3.19,33.17-1.76,37.96Z"/>
  <path class="cls-1" d="M68.89.17c-4.01-.85-7.9,1.7-8.7,5.4-.72,3.31,1.18,6.85,4.57,8.18,3.77.95,15.87,4.5,24.65,16.28,6.23,8.36,7.81,16.87,8.3,21.02-3.87-2.43-7.73-4.85-11.6-7.28-2.65-1.17-5.67-.55-7.34,1.4-2.09,2.42-1.8,6.55,1.06,8.98,6.92,6.27,13.85,12.54,20.77,18.81.38.15,2.59.98,4.94-.14,2.9-1.38,3.41-4.51,3.45-4.76.82-3.58,5.57-25.94-8.88-46.22C89.14,6.44,73.7,1.5,68.89.17Z"/>
  <path class="cls-1" d="M96.37,95.19c2.77-3.03,2.53-7.67-.25-10.23-2.49-2.29-6.51-2.45-9.37-.2-2.73,2.77-11.92,11.41-26.52,13.02-10.36,1.14-18.5-1.8-22.33-3.48,4.05-2.11,8.1-4.22,12.15-6.32,2.35-1.69,3.34-4.61,2.51-7.04-1.03-3.02-4.74-4.87-8.28-3.63-8.91,2.8-17.82,5.6-26.73,8.4-.32.25-2.16,1.74-2.38,4.33-.28,3.2,2.16,5.22,2.36,5.39,2.67,2.52,19.56,17.93,44.36,15.73,18.83-1.67,30.89-12.48,34.48-15.96Z"/>
</svg>