<?xml version="1.0" encoding="UTF-8"?>
<svg id="Capa_1" data-name="Capa 1" xmlns="http://www.w3.org/2000/svg" viewBox="0 0 106.83 123">
  <defs>
    <style>
      .cls-1 {
        fill: #fff;
        stroke-width: 0px;
      }
    </style>
  </defs>
  <path class="cls-1" d="M25.63,62.22l7.17-5.87c4.95,7.76,13.69,12.08,22.43,11.09,10.78-1.23,16.38-9.95,17.09-11.09,2.96,1.61,5.91,3.22,8.87,4.83-1.04,1.63-9.04,13.81-24.39,15.52-12.03,1.34-24-4.25-31.17-14.48Z"/>
  <path class="cls-1" d="M53.41,0C23.91,0,0,23.91,0,53.41c0,18.6,9.51,34.97,23.93,44.54v25.05l24.2-16.37-.24-.09c1.82.19,3.66.28,5.53.28,29.5,0,53.41-23.91,53.41-53.41S82.91,0,53.41,0ZM53.41,98.61c-2.69,0-5.32-.25-7.88-.7l-13.77,8.65v-13.47c-14.03-7.67-23.54-22.56-23.54-39.68,0-24.96,20.23-45.2,45.2-45.2s45.2,20.23,45.2,45.2-20.23,45.2-45.2,45.2Z"/>
</svg>