<?xml version="1.0" encoding="UTF-8"?>
<svg id="Capa_1" data-name="Capa 1" xmlns="http://www.w3.org/2000/svg" viewBox="0 0 282.34 282.15">
  <defs>
    <style>
      .cls-1 {
        fill: #045db7;
      }

      .cls-1, .cls-2 {
        stroke-width: 0px;
      }

      .cls-2 {
        fill: #fff;
      }
    </style>
  </defs>
  <circle class="cls-2" cx="140.37" cy="140.52" r="138.67"/>
  <path class="cls-1" d="M141.14,282.15C64.88,282.49-.24,220.71,0,140.63.24,62.1,63.93-.48,142.11,0c77.32.48,140.66,63.03,140.23,141.9-.43,79.28-65.11,140.61-141.2,140.24ZM141.1,3.67C65.84,3.23,3.19,65.05,3.53,141.95c.34,75.73,62.16,137.13,138.61,136.71,76.09-.42,137.08-62.42,136.62-138.45-.46-76.09-62.87-137.03-137.67-136.54Z"/>
  <path class="cls-1" d="M141.17,35.48c57.3-.39,105.53,46.43,105.77,105.14.23,58.11-46.36,105.92-105.17,106.23-58.85.3-106.33-47.12-106.38-105.63-.05-58.95,48.22-106.12,105.78-105.74ZM185.56,151.97c2.86.02,5.2-.07,7.53-.54,11.53-2.33,17.21-8,19.47-19.49.98-4.97.65-9.89-.37-14.82-1.5-7.19-5.55-12.32-12.29-15.21-8.88-3.8-17.89-3.98-26.98-.68-7.37,2.68-11.9,7.81-13.63,15.46-1.02,4.5-1.41,9.03-.83,13.62,1.21,9.58,6.01,16.38,15.32,19.7,3.98,1.42,8.06,2.14,11.79,1.96ZM108.28,141.72c0,2.42.07,4.85-.02,7.27-.06,1.51.56,2.05,2.01,2.02,2.36-.05,4.72-.03,7.07,0,1.15.02,1.82-.36,1.73-1.62-.13-1.83.72-1.9,2.06-1.15.76.42,1.56.81,2.37,1.14,7.36,3.03,14.87,3.74,22.47,1.04,10.99-3.9,13.85-16.95,5.68-25.24-2.86-2.9-6.36-4.42-10.17-5.51-5.37-1.54-10.73-3.15-16.07-4.79-1.16-.36-2.42-.98-2.22-2.48.2-1.51,1.55-2.03,2.84-2.12,5.68-.42,11.29.23,15.45,4.39,2.58,2.58,5.25,3.05,8.47,2.81.94-.07,1.89-.05,2.83,0,1.24.06,1.87-.36,1.85-1.72-.04-4.44-.04-8.89,0-13.33.01-1.29-.51-1.84-1.8-1.81-2.22.04-4.45.02-6.67,0-1.02,0-1.89.13-2.02,1.42-.1.96-.7,1.03-1.45.68-.67-.31-1.33-.65-2-.96-6.89-3.16-14.05-3.67-21.3-1.71-5.34,1.44-9.46,4.5-11.03,10.18-1.97,7.11.45,13.51,6.69,17.5,1.83,1.17,3.81,2,5.88,2.63,5.03,1.53,10.05,3.05,15.07,4.59.96.3,1.92.63,2.86,1.01.89.36,1.79.85,1.8,1.96,0,1.23-1.02,1.63-1.96,2.03-.31.13-.63.24-.96.3-6.24,1.03-12.21.08-16.69-4.47-2.57-2.61-5.02-3.65-8.42-3.23-.73.09-1.48.07-2.22,0-1.54-.13-2.22.46-2.15,2.08.09,2.35.02,4.71.02,7.07ZM88.01,151.01c4.85,0,9.69-.01,14.54,0,1.14,0,1.98-.16,1.95-1.61-.05-3.03-.04-6.06,0-9.08.02-1.27-.61-1.63-1.75-1.6-1.35.04-2.69-.03-4.04,0-1.17.03-1.78-.45-1.78-1.64,0-7.94,0-15.88,0-23.82,0-1.17.59-1.72,1.74-1.72,1.35,0,2.69-.05,4.04-.01,1.29.04,1.81-.52,1.79-1.81-.05-2.83-.05-5.65,0-8.48.03-1.33-.55-1.76-1.82-1.75-9.63.03-19.25.03-28.88,0-1.43,0-1.9.64-1.86,1.97.05,1.61,0,3.23,0,4.84,0,5.13,0,5.2,5.03,5.19,1.91,0,2.61.65,2.59,2.58-.08,6.46-.03,12.92-.03,19.38q0,5.39-5.42,5.54c-.07,0-.14,0-.2,0-1.51-.14-2.01.58-1.98,2.03.07,2.55.1,5.12,0,7.67-.08,1.77.6,2.36,2.35,2.33,4.58-.09,9.15-.03,13.73-.03ZM135.8,184.24c15.25.02,25.22-2.6,34.61-8.14,7.35-4.33,13.46-10.05,18.31-17.08.31-.45,1.27-1.03.37-1.64-.6-.41-1.28.07-1.73.66-.24.32-.49.64-.72.97-2.44,3.41-5.34,6.41-8.41,9.25-2.53,2.34-2.53,2.32-5.33.47-.62-.41-1.23-.84-1.89-1.16-1.39-.68-1.76-1.35-.54-2.69,1.71-1.9,3.08-4.08,4.35-6.3.21-.36.73-.82.14-1.21-.39-.26-.96-.18-1.32.17-.38.37-.65.85-.96,1.28-1.34,1.85-2.68,3.71-4.01,5.56-.65.91-1.44,1.11-2.45.59-2.22-1.13-4.51-2.11-6.89-2.88-1.04-.33-1.44-.9-.99-1.96.21-.49.39-1,.54-1.52.12-.42.52-.94-.09-1.23-.56-.27-1.07.03-1.35.56-.28.53-.52,1.09-.72,1.66-.39,1.09-1.1,1.41-2.21,1.1-3.72-1.02-7.53-1.5-11.36-1.66-1.44-.06-1.69-1.53-2.72-1.64-1.19-.13-1.33,1.66-2.9,1.67-3.01.02-6.04.42-9,1.09-1.11.25-2.27.72-3.35.6-1.37-.15-1.19-1.77-1.79-2.69-.36-.56-.83-.99-1.49-.67-.56.28-.22.83-.1,1.26q.81,2.93-1.95,3.97c-.5.19-1,.4-1.5.6q-5.77,2.35-9.32-2.92c-.6-.89-1.16-1.82-1.82-2.67-.36-.46-1.01-.56-1.47-.25-.57.4-.02.86.2,1.21.77,1.27,1.62,2.48,2.39,3.74.86,1.42,2.91,2.61,2.58,4.07-.32,1.43-2.62,1.87-3.9,2.95-1.17.99-2.1.98-3.31-.08-3.66-3.21-7.04-6.65-9.84-10.65-.54-.78-1.33-1.87-2.22-1.21-.96.72.29,1.52.73,2.11,11.88,16.06,27.87,24.2,43.44,24.71ZM140.51,66.62c-5.61-.14-11.06.67-16.39,2.21-13.38,3.86-23.98,11.64-32.07,22.9-.36.5-1.19,1.17-.57,1.71.74.64,1.48,0,2-.7.12-.16.24-.32.36-.49,2.42-3.52,5.39-6.53,8.49-9.44q2.52-2.37,5.47-.43c.51.33.99.71,1.54.97,1.58.75,1.88,1.52.62,3.02-1.55,1.84-2.8,3.95-4.14,5.96-.24.35-.68.85-.12,1.22.4.26.95.17,1.31-.2.37-.38.66-.84.97-1.28,1.17-1.65,2.35-3.29,3.49-4.95.91-1.32,1.91-1.66,3.4-.79,1.39.8,2.93,1.35,4.42,1.97.99.42,2.27.53,2.93,1.23.84.89-.38,1.94-.52,2.97-.05.38-.29.84.21,1.06.47.21.96.07,1.24-.38.25-.4.46-.83.58-1.28.41-1.47,1.23-1.8,2.72-1.42,3.66.92,7.49,1.03,11.12,1.82,2.11.46,3.69.31,5.68-.08,3.01-.59,6.15-.65,9.17-1.33,2.19-.49,4.45-1.39,5.01,2.04.03.17.21.34.36.47.34.28.76.34,1.13.11.36-.22.22-.6.13-.92-.13-.45-.24-.92-.46-1.33-.68-1.3-.19-1.96,1.11-2.37,1.41-.45,2.79-1,4.15-1.58,4.33-1.85,4.33-1.87,7.09,2.06.85,1.21,1.64,2.47,2.48,3.69.39.56,1.04.84,1.59.49.66-.41.08-.97-.17-1.38-.7-1.15-1.5-2.24-2.19-3.39-.85-1.43-2.89-2.56-2.6-4.1.29-1.53,2.67-1.81,3.87-2.97,1.37-1.33,2.4-.85,3.6.26,3.52,3.25,6.87,6.65,9.61,10.6.52.75,1.27,1.59,2.11.88.68-.58-.27-1.32-.66-1.86-11.91-16.25-27.95-24.53-48.05-24.97ZM84.19,198.6c0,2.03-.49,3.6-1.12,5.14-.66,1.6-1.78,2.68-3.6,2.81-1.8.14-3.16-.52-3.88-2.24-.39-.92-1.07-1.3-1.92-.84-.91.5-.37,1.31-.08,1.95,1.77,3.85,7.93,4.1,10.7.45,2.7-3.55,3.23-11.77,1.01-15.66-1.54-2.7-5.14-3.9-8.31-2.78-2.86,1.02-4.66,4.33-4.18,7.73.46,3.26,2.71,5.33,5.9,5.61,2.1.18,3.74-.71,5.49-2.18ZM103.7,197.81c-.12-2.43-.35-4.79-1.38-6.94-1.12-2.35-2.93-3.73-5.7-3.77-2.75-.04-4.77,1.16-5.8,3.56-2,4.64-1.98,9.41-.02,14.08,1.1,2.63,3.22,3.85,6.1,3.7,2.83-.14,4.56-1.73,5.61-4.21.88-2.08.99-4.3,1.19-6.44ZM179.28,197.88c.06-2.1-.28-4.16-.95-6.14-1.08-3.17-3.15-4.65-6.31-4.61-2.93.03-5.15,1.61-6.06,4.68-1.18,4-1.27,8.08.1,12.07,1.1,3.2,3.17,4.63,6.33,4.57,2.78-.05,5.06-1.85,6-4.83.59-1.86.94-3.78.88-5.74ZM120.32,197.64c.12-2.3-.17-4.63-1.19-6.81-1.08-2.33-2.84-3.66-5.5-3.72-2.76-.06-4.94.95-6,3.55-1.95,4.74-1.99,9.55.07,14.3,1.1,2.53,3.22,3.5,5.85,3.48,2.62-.02,4.46-1.28,5.56-3.64,1.04-2.25,1.34-4.63,1.22-7.16ZM206.28,187.55s0-.02,0-.02c-1.08,0-2.16.09-3.23-.02-1.77-.18-2.39.72-2.55,2.31-.18,1.8-.54,3.59-.69,5.4-.09,1.07-.91,2.41.19,3.2,1.11.8,1.92-.52,2.8-1.02,1.92-1.09,4.3-.91,5.84.47,1.56,1.4,2,3.83,1.08,5.95-.8,1.85-2.59,2.87-4.75,2.71-1.76-.13-3.06-.98-3.79-2.59-.42-.93-1.18-1.2-1.98-.88-1.07.43-.31,1.26-.13,1.87.21.71.64,1.32,1.2,1.83,2.29,2.08,7.09,2.3,9.63.43,2.58-1.9,3.53-5.68,2.2-8.71-1.31-2.99-4.47-4.37-8.16-3.55q-2.31.51-1.94-1.79c.05-.33.19-.66.19-.99,0-1.97,1.07-2.48,2.86-2.36,1.74.12,3.5.02,5.25,0,.66,0,1.21-.2,1.24-1,.04-.87-.45-1.22-1.24-1.23-1.35-.01-2.69,0-4.04,0ZM154.78,207.98c1.89,0,3.77,0,5.66,0,.7,0,1.41-.09,1.46-1.01.06-1.04-.67-1.2-1.47-1.2-2.16,0-4.31.04-6.47-.03-1.02-.04-2.58.57-2.93-.54-.42-1.31.94-2.22,1.97-2.99.43-.32.91-.57,1.36-.86,1.75-1.14,3.75-1.85,5.34-3.24,2.23-1.94,2.95-4.82,1.84-7.49-1.08-2.59-3.85-3.86-7.5-3.43-2.82.33-4.87,2.22-5.3,5.01-.1.68-.69,1.72.52,2.02,1.11.27,1.47-.51,1.72-1.48.66-2.55,1.89-3.59,4.13-3.65,2.03-.06,3.6.98,4.22,2.8.67,1.99.02,3.82-2.02,5.21-1.67,1.13-3.46,2.09-5.16,3.17-2.21,1.41-3.58,3.38-4.06,6-.24,1.28.18,1.75,1.43,1.73,1.75-.03,3.5,0,5.25-.01ZM132.41,197.43h-.01c0-2.95,0-5.9,0-8.85,0-.54-.02-1.11-.68-1.31-.51-.15-1.02-.03-1.21.45-.83,2.12-2.42,3.1-4.61,3.33-.46.05-.91.35-.84.95.07.61.57.68,1.05.72.4.03.8.02,1.21.03,2.57.06,2.72.19,2.73,2.77.02,3.29-.04,6.57.03,9.86.02.95-.55,2.46,1.13,2.52,1.77.07,1.17-1.48,1.19-2.41.08-2.68.03-5.37.03-8.05ZM191.11,197.52h-.01c0-2.95,0-5.91,0-8.86,0-.54-.02-1.14-.65-1.35-.62-.21-1.05.15-1.26.7-.72,1.83-2.15,2.64-4,2.95-.58.1-1.29.29-1.13,1.12.13.67.79.62,1.32.66.4.03.81.05,1.21.01,1.69-.16,2.22.66,2.18,2.27-.08,3.42-.08,6.85.01,10.27.02.97-.69,2.67,1.19,2.6,1.75-.07,1.09-1.71,1.13-2.71.09-2.55.03-5.1.03-7.65Z"/>
  <path class="cls-1" d="M126.36,259.75c-1.46,3.54-3.01,7.04-4.35,10.63-.6,1.6-1.44,1.92-3.05,1.67-1.71-.27-2.23-1.12-2.28-2.7-.13-3.95-.35-7.9-.79-11.89-.64,3.75-1.32,7.5-1.9,11.26-.22,1.43-.43,2.44-2.33,2.08-1.69-.31-2.24-.93-1.91-2.69.94-4.96,1.7-9.95,2.55-14.92.46-2.67.47-2.67,3.25-2.28,3.51.5,3.48.5,3.68,4.08.21,3.62.5,7.24,1.08,10.94,1.54-3.69,3.08-7.37,4.64-11.05.35-.83.48-2.02,1.72-1.95,1.67.1,3.39.15,4.89.99.5.28.25,1.01.17,1.52-.93,5.51-1.92,11-2.8,16.52-.32,1.96-1.58,1.32-2.74,1.25-1.38-.09-1.65-.82-1.43-2.05.68-3.77,1.3-7.54,1.94-11.32-.11-.04-.23-.07-.34-.11Z"/>
  <path class="cls-1" d="M196.63,247.84c1.63,2.91,3.26,5.83,4.9,8.74,1.21,2.14,1.1,2.4-1.06,3.49-.98.49-1.57.4-2.12-.6-2.75-4.94-5.55-9.86-8.32-14.78-.32-.58-.85-1.34-.03-1.77,1.34-.7,2.47-2.32,4.34-1.22,2.89,1.72,5.79,3.44,8.69,5.15.8.48,1.61.95,2.43,1.43.49-.72-.08-1.1-.3-1.51-1.49-2.72-2.96-5.44-4.55-8.1-.78-1.3-.11-1.8.89-2.32.94-.49,1.85-1.33,2.69.17,2.83,5.05,5.68,10.09,8.52,15.13.33.58.5,1.2-.21,1.57-1.3.66-2.39,2.11-4.18,1.02-3.27-2.01-6.58-3.95-9.88-5.91-.46-.27-.93-.52-1.39-.77-.14.09-.28.19-.42.28Z"/>
  <path class="cls-1" d="M108.96,14.12c4.47-.05,7.36,4.24,5.76,7.96-.43,1.01-.66,1.6.47,2.27,1.15.69,1.5,2.01,1.88,3.24.28.9.63,1.77.86,2.68.17.66,1.85,1.45.19,1.95-1.32.4-3.02,1.98-4.27-.14-.57-.96-.87-2.11-1.16-3.21-.53-2-1.8-2.51-3.67-2.04-.39.1-.77.25-1.17.3-1.94.22-2.54,1.15-1.77,3,.38.93.51,1.95.85,2.9.57,1.55.29,2.42-1.49,2.93-1.82.52-2.37-.18-2.79-1.75-1.36-5.06-2.77-10.11-4.26-15.13-.46-1.53-.04-2.2,1.47-2.59,3.18-.83,6.3-1.9,9.09-2.38ZM107.75,18.32c-.18.04-.9.18-1.61.37-3.15.84-3.08.82-2.25,3.68.43,1.5,1.13,1.99,2.6,1.41.93-.37,1.94-.56,2.86-.94,1.19-.49,1.79-1.37,1.41-2.72-.35-1.25-1.09-1.98-3.02-1.8Z"/>
  <path class="cls-1" d="M81.08,253.61c.32-3.31,1.8-6.83,5-9.44,2.92-2.38,6.88-2.39,10.6-.17,3.4,2.02,5,5.28,4.43,8.98-.86,5.58-4.19,9.75-8.53,10.67-5.58,1.19-11.52-3.6-11.5-10.04ZM85.61,254.73c-.07,2.16,1.01,3.58,2.88,4.46,1.93.9,3.69.47,5.22-.92,1.72-1.56,2.52-3.64,2.96-5.84.46-2.31-.58-4.32-2.66-5.35-1.97-.98-4.16-.61-5.71,1.07-1.7,1.85-2.56,4.08-2.68,6.58Z"/>
  <path class="cls-1" d="M222.96,63.22c-1.77.02-3.3-.65-4.59-1.79-1.91-1.69-3.72-3.49-5.63-5.18-.99-.88-.92-1.56-.02-2.49,3.79-3.9,7.56-7.82,11.26-11.8,1.11-1.2,1.86-1.1,2.94,0,1.73,1.78,3.67,3.36,5.38,5.15,2.2,2.3,2.69,5.02,1.54,8.01-1.7,4.39-6.73,8.14-10.88,8.1ZM230.16,51.54c-.2-1.89-1.8-3-3.11-4.32-.72-.72-1.38-.68-2.06.05-2.25,2.39-4.51,4.77-6.77,7.16-.45.48-.68.87-.16,1.54,1.84,2.37,3.96,3.37,6.01,2.72,2.72-.87,6.13-4.76,6.09-7.15Z"/>
  <path class="cls-1" d="M207.37,47.61c-.36.89-.74,1.87-1.52,2.51-.66.54-1.25-.15-1.8-.48-3.34-2.01-6.64-4.09-10.01-6.05-1.16-.68-1.25-1.29-.57-2.39,2.84-4.56,5.64-9.16,8.39-13.78.8-1.35,1.51-1.8,3-.83,3.1,2.02,6.27,3.92,9.48,5.76,1.25.72,1.13,1.39.48,2.41-.62.98-1.09,1.85-2.47.94-1.97-1.29-4.08-2.36-6.01-3.7-1.43-.99-1.92-.22-2.64.84-.87,1.27-.39,1.88.75,2.51,1.59.87,3.1,1.89,4.68,2.79,1.19.67,1.92,1.26.98,2.8-.88,1.46-1.67,1.38-2.89.55-1.61-1.09-3.34-2.01-4.97-3.09-1.34-.89-1.97-.15-2.47.94-.46,1.01-1.99,2-.01,3.11,2.17,1.22,4.26,2.57,6.38,3.88.5.31,1.13.51,1.22,1.29Z"/>
  <path class="cls-1" d="M83.51,45.99c-.8.06-1.06-.53-1.34-1.06-2.62-4.92-5.21-9.86-7.86-14.77-.64-1.19-.29-1.8.82-2.37,3.28-1.7,6.56-3.41,9.77-5.25,1.57-.9,2.04-.06,2.74,1.1.86,1.43.06,1.87-1,2.4-2.04,1.03-4.01,2.19-6.07,3.18-1.33.64-1.12,1.4-.54,2.41.54.95.98,1.75,2.31.99,1.87-1.07,3.84-1.95,5.71-3.01,1.25-.7,1.8-.12,2.34.92.52,1,.82,1.79-.53,2.43-1.94.93-3.78,2.07-5.72,2.98-1.91.9-.7,1.95-.23,2.92.48,1,.87,2.21,2.49,1.26,2.26-1.32,4.64-2.44,6.93-3.72,1.25-.7,1.73.04,2.11.97.32.76,1.42,1.59,0,2.35-3.79,2.03-7.59,4.04-11.4,6.06-.18.09-.38.13-.54.19Z"/>
  <path class="cls-1" d="M168.62,269.92c.37-6.19.75-12.03,1.04-17.87.09-1.83,1.08-2.47,2.7-2.91,1.56-.42,2.57-.34,3.57,1.13,3.1,4.56,6.39,8.99,9.54,13.51.45.64,1.69,1.32.59,2.34-.94.87-3.62.94-4.27.24-.75-.81-.99-2.37-2.3-2.33-1.88.05-3.67.77-5.42,1.47-.94.38-.74,1.33-.8,2.11-.15,2.01-1.92,3.47-3.93,3.27-.97-.1-.73-.76-.73-.98ZM173.9,254.64c-.2,2.17-.31,3.7-.48,5.22-.17,1.46.42,1.81,1.73,1.31.5-.19,1.03-.3,1.53-.46.62-.2.93-.56.51-1.19-.98-1.48-1.98-2.95-3.29-4.88Z"/>
  <path class="cls-1" d="M53.56,46.97c.04-6.06,6.84-10.67,12.1-8.16.81.39,2.13.63,1.81,2-.24,1.03-2.88,2.36-3.75,1.94-1.45-.71-2.74-.44-3.99.42-1.66,1.15-2.23,2.83-1.6,4.77.81,2.46,2.35,4.36,4.53,5.74,1.66,1.06,3.34,1.02,4.91-.14,1.45-1.07,1.86-2.53,1.39-4.3-.34-1.27,1.41-3.63,2.63-3.66.81-.02.91.7,1.13,1.23,1.21,2.92.97,5.71-1.06,8.16-2.18,2.64-4.92,4.21-8.49,3.61-4.92-.84-9.65-6.59-9.61-11.6Z"/>
  <path class="cls-1" d="M142.13,259.14c-.17-5.05-.17-5.02,4.17-5.57,1.74-.22,3.48-.33,5.22-.27,3.59.14,5.54,2.15,5.96,6.07.37,3.41-1.2,5.7-4.5,6.64-1.25.36-2.53.38-3.8.36-1.56-.02-2.24.53-1.91,2.18.2.98.1,2.01.23,3,.21,1.58-.55,2.1-2,2.31-1.78.27-2.46-.4-2.55-2.11-.25-4.49-.58-8.97-.82-12.61ZM146.69,260.27c-.04,1.08-.16,2.53,2.21,2.38,2.91-.19,4.1-.86,4.06-2.79-.04-1.91-1.03-2.78-3.18-2.76-2.68.02-3.13.41-3.1,3.18Z"/>
  <path class="cls-1" d="M71.81,236.46c.15-3.11-2.95-5.28-5.78-3.99-2.59,1.18-4.27,3.28-5.21,5.89-.6,1.65-.47,3.37.96,4.66,1.43,1.29,3,1.65,4.81.65,1.01-.56,3.68.69,4.03,1.76.24.72-.38.93-.77,1.24-2.58,2-6.11,2.21-8.92.56-3.37-1.98-5.35-5.43-4.77-8.66.81-4.55,3.44-7.9,7.5-9.94,3.48-1.74,6.73-.72,9.5,1.76,2.34,2.09,3.68,4.66,2.82,7.91-.23.86-.29,2.48-1.59,2.03-1.16-.41-2.68-1.1-2.71-2.86,0-.33.08-.67.12-1Z"/>
  <path class="cls-1" d="M164.02,32.49c-2.83-.07-3.37-.73-2.75-3.38,1.16-4.9,2.39-9.79,3.49-14.71.37-1.64.99-2.26,2.76-1.76,3.17.89,6.4,1.56,9.6,2.32,1.21.29,2.34.42,1.87,2.29-.45,1.84-1.46,1.74-2.82,1.39-1.89-.48-3.82-.82-5.69-1.36-1.88-.54-1.92.82-2.27,1.96-.37,1.2-.09,1.89,1.26,2.14,1.78.33,3.53.86,5.3,1.23,1.45.3,1.28,1.19,1.08,2.29-.21,1.12-.62,1.75-1.86,1.44-1.57-.39-3.17-.65-4.7-1.15-1.74-.58-2.63-.18-2.9,1.72-.22,1.52-.7,3.01-1.04,4.51-.17.75-.5,1.25-1.35,1.06Z"/>
  <path class="cls-1" d="M214.95,227.23c1.79.72,3.59,1.46,5.41,2.16.6.23,1.3.93,1.84.46.65-.57-.06-1.37-.25-2.04-.45-1.62-1.02-3.2-1.48-4.81-.34-1.15,1.63-4.03,2.79-4.1.88-.05.86.74.99,1.27.62,2.34,1.3,4.67,1.73,7.04.61,3.35,1.96,6.18,4.56,8.49,1.75,1.56,1.18,3.51-1.03,4.43-.77.32-1.24-.13-1.53-.6-2.74-4.49-7.4-5.71-11.96-7.11-1.35-.41-2.68-.9-4.01-1.35-1.08-.37-1.25-.97-.37-1.72.99-.83,1.68-2.16,3.3-2.11Z"/>
  <path class="cls-1" d="M133.19,30.48c-1.91.54-2.19-.62-2.29-1.95-.29-4.01-.62-8.03-.82-12.04-.08-1.54-.78-1.99-2.17-1.85-.6.06-1.22-.02-1.81.08-1.4.24-2.14-.14-2.19-1.73-.04-1.45.44-2.05,1.93-2.13,4.09-.21,8.17-.51,12.25-.81,1.41-.11,2.12.35,2.15,1.88.03,1.4-.55,1.85-1.88,1.97-4.06.35-3.98.39-3.58,4.45.32,3.2.31,6.44.65,9.64.21,1.96-.36,2.82-2.24,2.5Z"/>
  <path class="cls-1" d="M148.18,28.41c.45-5.86.88-11.14,1.25-16.43.09-1.31.66-1.78,1.94-1.58,1.21.18,2.75-.18,2.6,1.87-.17,2.34-.32,4.69-.5,7.03-.23,2.94-.5,5.88-.72,8.82-.1,1.28.1,2.6-1.98,2.4-2.53-.25-2.64-.24-2.59-2.11Z"/>
  <path class="cls-1" d="M192.3,21.33c-.17.49-.29.94-.47,1.37-2.02,4.98-4.08,9.93-6.03,14.94-.67,1.72-1.63,1.32-2.86.82-1.22-.5-2.13-.86-1.38-2.58,2.21-5.11,4.24-10.3,6.35-15.46.29-.71.6-1.48,1.58-1.01,1.02.5,2.43.47,2.81,1.92Z"/>
  <path class="cls-1" d="M194.76,125.41c.19,2.31-.2,4.71-.42,7.12-.46,4.93-3.73,7.44-9.14,7.11-4.94-.3-6.7-1.97-7.73-6.8-1.12-5.23-.8-10.42,0-15.62.45-2.92,2.19-4.65,5.03-5.38,1.79-.46,3.6-.52,5.41-.31,3.26.38,5.39,2.32,6.11,5.56.6,2.7.88,5.44.74,8.34Z"/>
  <path class="cls-1" d="M141.28,167.81c0-1.75.03-3.49-.01-5.24-.03-1.26.48-1.84,1.78-1.82,3.65.07,7.21.72,10.76,1.48,1.3.28,1.38.97.84,2.05-1.71,3.46-3.83,6.6-6.67,9.27-1.5,1.41-3.04,1.98-5.1,1.53-1.14-.25-1.64-.7-1.62-1.84.03-1.81,0-3.63,0-5.44Z"/>
  <path class="cls-1" d="M139.45,167.98c0,1.34.07,2.69-.02,4.02-.07,1,.56,2.45-.8,2.82-1.4.38-2.95.98-4.43-.13-3.03-2.25-5.23-5.18-7.08-8.41-2.09-3.66-2.07-3.75,2.15-4.54,2.77-.52,5.55-.98,8.38-1,1.29,0,1.83.51,1.8,1.79-.04,1.81-.01,3.62-.01,5.43h0Z"/>
  <path class="cls-1" d="M140.46,182.7c-3.77-.23-7.67-.4-11.49-1.23-.5-.11-1.22-.09-1.32-.7-.11-.64.59-.83,1.04-1.07,7.77-4.11,15.55-4.16,23.33,0,.45.24,1.15.43,1.06,1.06-.09.64-.8.61-1.3.71-3.7.75-7.44,1.1-11.32,1.24Z"/>
  <path class="cls-1" d="M129.94,176.9c-.36-.11-.88-.23-1.38-.41-4.85-1.82-9.02-4.68-12.79-8.19-1.15-1.07-1.02-1.69.42-2.24,2-.77,3.98-1.61,5.96-2.42.98-.4,1.64-.12,2.11.86,1.92,3.94,4.18,7.65,7.54,10.57.3.26.6.56.32,1.03-.18.3-1.42.81-2.18.81Z"/>
  <path class="cls-1" d="M150.62,176.88c-.74-.15-1.62-.2-1.99-.86-.46-.83.53-1.09.96-1.51,2.83-2.77,4.98-6.02,6.64-9.57.66-1.4,1.44-1.77,2.83-1.15,1.97.88,3.97,1.67,5.95,2.51.77.33,1.11.79.39,1.51-4.06,4.07-8.72,7.18-14.21,8.98-.19.06-.4.07-.58.1Z"/>
  <path class="cls-1" d="M123.97,180.25c-1.58-.56-3.19-1.04-4.74-1.68-3.8-1.57-7.42-3.47-10.86-5.74-1.2-.8-1.45-1.34-.09-2.3,4.12-2.92,4.08-2.94,7.82.38,2.83,2.51,5.98,4.56,9.4,6.19.59.28,1.54.28,1.64.99.11.87-.93,1.01-1.48,1.45-.47.37-.99.72-1.69.72Z"/>
  <path class="cls-1" d="M156.59,180.17c-1.12-.07-1.97-.88-2.84-1.59-.6-.49-.05-.8.41-.99,4.95-2.12,9.17-5.31,13.06-8.98.57-.54,1.18-.62,1.83-.21,1.25.78,2.49,1.59,3.73,2.39.84.54.92,1.1.06,1.69-4.87,3.3-10.06,5.95-15.73,7.59-.13.04-.26.05-.51.11Z"/>
  <path class="cls-1" d="M139.44,83.37c0,1.82-.02,3.63,0,5.45.02,1.19-.48,1.76-1.7,1.65-3.62-.34-7.22-.69-10.77-1.54-1.4-.34-1.73-.85-1.02-2.22,1.94-3.72,4.1-7.23,7.35-10,1.76-1.5,3.54-.77,5.33-.44.84.15.78,1,.79,1.67.02,1.82,0,3.63,0,5.45Z"/>
  <path class="cls-1" d="M141.28,83.28c0-1.81.02-3.63,0-5.44-.02-1.06.49-1.54,1.5-1.78,2.18-.51,4-.21,5.66,1.5,2.72,2.78,4.69,6.04,6.5,9.42.48.9.38,1.5-.72,1.79-3.79.99-7.65,1.46-11.55,1.68-1.08.06-1.39-.58-1.39-1.52,0-1.88,0-3.76,0-5.65Z"/>
  <path class="cls-1" d="M140.55,68.25c3.92-.01,7.79.43,11.62,1.24.49.1,1.23.07,1.27.74.04.61-.66.8-1.11,1.05-8.04,4.38-16.07,4.35-24.07-.09-.43-.24-1.15-.42-.96-1.1.14-.47.76-.49,1.22-.58,3.97-.77,7.97-1.29,12.03-1.25Z"/>
  <path class="cls-1" d="M129.54,74.02c.86.2,1.82.28,2.21.99.47.86-.55,1.25-1.02,1.72-2.83,2.77-4.77,6.14-6.5,9.64-.56,1.12-1.17,1.46-2.37,1.04-2.16-.75-4.27-1.62-6.32-2.63-.97-.48-1.19-1.01-.34-1.81,3.96-3.71,8.3-6.82,13.44-8.7.31-.11.64-.18.91-.25Z"/>
  <path class="cls-1" d="M151.22,74.02c.43.14.95.27,1.44.47,4.78,1.84,8.84,4.78,12.6,8.2.98.89,1.19,1.59-.25,2.18-2.05.84-4.1,1.69-6.13,2.57-1.2.51-1.81.04-2.35-1.07-1.72-3.51-3.69-6.86-6.53-9.63-.48-.47-1.49-.86-1.02-1.73.39-.72,1.36-.77,2.24-.99Z"/>
  <path class="cls-1" d="M126.83,72.8c-.13.46-.57.53-.92.69-4.64,2.13-8.72,5.05-12.28,8.68-.8.82-1.51.95-2.46.29-1.16-.81-2.37-1.53-3.55-2.3-.76-.49-.83-.97-.04-1.53,4.86-3.46,10.12-6.11,15.85-7.77.98-.28,3.5,1.25,3.4,1.93Z"/>
  <path class="cls-1" d="M157.15,70.81c4.1,1.14,7.95,2.9,11.64,4.99,1.4.79,2.72,1.72,4.09,2.58.97.61,1.24,1.22.08,1.9-.06.03-.11.08-.16.12-4.08,3.02-4.06,3-7.84-.32-2.79-2.44-5.86-4.49-9.18-6.16-.66-.33-2.06-.51-1.72-1.29.44-1.01,1.61-1.74,2.91-1.84.06,0,.13.02.2.04Z"/>
  <path class="cls-1" d="M75.1,194.22c-.04-2.9,1.76-5.05,4.3-5.12,2.55-.07,4.51,1.91,4.56,4.62.06,2.92-1.72,5.01-4.32,5.08-2.65.07-4.5-1.8-4.55-4.58Z"/>
  <path class="cls-1" d="M101.04,197.73c.07,2.03-.03,4.05-.86,5.95-.69,1.57-1.75,2.79-3.61,2.77-1.81-.02-3.1-1.03-3.68-2.69-1.4-4.01-1.4-8.06.06-12.06.57-1.56,1.77-2.57,3.52-2.59,1.84-.01,2.97,1.09,3.7,2.67.86,1.89.93,3.91.87,5.94Z"/>
  <path class="cls-1" d="M176.66,197.72c.04,2.03,0,4.04-.83,5.95-.7,1.6-1.8,2.76-3.63,2.76-1.9,0-3.16-1.09-3.75-2.86-1.25-3.75-1.29-7.54-.12-11.31.56-1.79,1.71-3.13,3.75-3.14,2.12,0,3.23,1.38,3.92,3.22.66,1.75.66,3.56.65,5.38Z"/>
  <path class="cls-1" d="M117.99,197.83c-.03,2.16-.24,4.28-1.21,6.27-.71,1.46-1.87,2.32-3.48,2.34-1.55.02-2.76-.87-3.35-2.22-1.92-4.41-1.83-8.88.18-13.25.61-1.32,1.9-1.88,3.34-1.86,1.56.02,2.66.87,3.32,2.24.98,2.04,1.17,4.25,1.2,6.48Z"/>
</svg>