<?xml version="1.0" encoding="UTF-8"?>
<svg id="Capa_1" data-name="Capa 1" xmlns="http://www.w3.org/2000/svg" viewBox="0 0 887.06 239.91">
  <defs>
    <style>
      .cls-1 {
        fill: #0a5bfb;
      }

      .cls-1, .cls-2 {
        stroke-width: 0px;
      }

      .cls-2 {
        fill: #3582fe;
      }
    </style>
  </defs>
  <path class="cls-2" d="M471.13,71.43c0-21.49.03-42.99-.05-64.48,0-2.02.59-3.24,2.33-4.22,3.3-1.86,6.79-2.71,10.55-2.71,17.27,0,34.54,0,51.81,0,8.96,0,17.91-.06,26.87.03,6.72.07,12.23,2.77,16.3,8.18,2.58,3.43,3.85,7.36,3.89,11.62.07,6.95.1,13.9-.01,20.85-.09,5.43-1.45,10.58-4.16,15.33-.36.62-.76,1.22-1.09,1.86-.99,1.95-.23,3.72,1.84,4.31,3.23.93,3.44,1.19,3.44,4.39,0,14.38.13,28.77-.04,43.15-.12,10.23-4.05,18.81-12.33,25.08-4.85,3.68-10.41,5.6-16.51,5.61-25.51.05-51.01.02-76.52.03-1.79,0-3.48-.39-5.12-1.07-.84-.35-1.28-.87-1.2-1.82.05-.55,0-1.12,0-1.68v-64.48.02ZM497.01,39.41c0,4.55-.03,9.1,0,13.65.06,8.38,6.16,14.45,14.58,14.49,5.99.03,11.99-.08,17.98.03,11.34.2,19.43-9.25,19.66-19.4.17-7.42.08-14.85.02-22.27-.07-8.23-6.23-14.38-14.44-14.43-7.83-.05-15.66-.05-23.49,0-8.08.05-14.23,6.21-14.3,14.28-.04,4.55,0,9.1,0,13.65h-.01ZM523.17,79c-3.92,0-7.84.07-11.75-.02-8.19-.18-14.58,6.84-14.44,14.44.14,7.19,0,14.38.04,21.57.05,7.96,6.09,14.16,14.09,14.29,8.07.13,16.15.13,24.23,0,7.94-.13,13.85-6.22,13.91-14.16.06-7.27.07-14.54,0-21.82-.09-9-7.51-14.51-14.32-14.32-3.92.11-7.84.02-11.75.02h0Z"/>
  <path class="cls-2" d="M707.9,48.43c12.31,0,24.62-.03,36.93,0,8.32.03,15.18,5.37,17.24,13.32.44,1.71.59,3.46.59,5.22,0,14.7.06,29.4-.01,44.1-.06,12.67-7.82,23.4-19.42,27.13-2.6.83-5.25,1.34-8,1.33-21.66,0-43.33,0-64.99,0-4.46,0-8.43-1.49-12.07-4.05-1.45-1.02-2.04-2.14-2.03-3.96.08-13.58.04-27.16.04-40.74,0-11.42.05-22.85-.05-34.27-.02-1.84.64-2.96,2.05-3.96,3.84-2.72,8.08-4.12,12.78-4.12h36.94ZM684.66,93.91c0,6.31-.04,12.62,0,18.92.06,8.83,6.66,15.44,15.47,15.53,3.44.04,6.87.02,10.31,0,10.38-.06,17.17-8.56,17.07-17.02-.14-12.13-.03-24.27-.04-36.41,0-1.28-.07-2.54-.39-3.8-1.73-6.85-7.62-11.5-14.89-11.63-3.83-.07-7.67-.03-11.5,0-9.45.04-15.99,6.56-16.02,15.97-.02,6.15,0,12.3,0,18.44h0Z"/>
  <path class="cls-2" d="M392.9,140.47c-14.95,0-29.9-.02-44.86,0-3.3,0-6.3-.87-9.12-2.52-.83-.49-1.35-1.08-1.22-2.11.05-.39,0-.8,0-1.2V54.11c0-1.93.93-3.21,2.8-3.84,1.68-.56,3.42-.78,5.19-.78,28.63,0,57.25-.03,85.88.02,9.25,0,15.88,6.69,15.94,15.89.04,6.47.02,12.94,0,19.42-.03,12.87-10.47,21.32-21.07,21.26-18.47-.12-36.94-.03-55.41-.02-.88,0-1.77-.03-2.63.12-1.64.28-2.44,1.08-2.46,2.75-.06,5.83-.06,11.67,0,17.5.02,1.7.98,2.65,2.64,2.87.71.09,1.44.04,2.16.04h71.48c.64,0,1.28-.02,1.92,0,2.58.09,3.71,1.54,3.23,4.12-.8,4.31-4.09,7.02-8.67,7.03-15.27.02-30.54,0-45.82,0l.02-.02ZM389.15,60.69h0c-4.15,0-8.31-.08-12.46.03-6.2.15-10.65,4.67-10.75,10.84-.06,4.15-.06,8.3,0,12.45.09,6.27,4.68,10.88,10.93,10.93,6.31.06,12.62.06,18.93,0,8.42-.08,15.22-6.16,16.43-14.53.46-3.18.44-6.39.15-9.55-.63-7-6.42-10.38-11.25-10.2-3.99.14-7.99.03-11.98.03h0Z"/>
  <path class="cls-2" d="M175.75,49.94c13.27,0,26.54-.02,39.81,0,6.16,0,11.18,2.37,14.78,7.47,2.14,3.04,3.05,6.47,3.06,10.16,0,14.7.1,29.4-.03,44.1-.1,11.96-5.65,20.72-16.3,26.16-3.45,1.76-7.19,2.63-11.1,2.63-22.31,0-44.61,0-66.92,0-2.21,0-4.26-.5-6.23-1.49-.87-.44-1.43-.99-1.3-2.04.04-.31,0-.64,0-.96v-47.94c0-2.66.11-2.76,2.68-3.29,1.27-.26,2.54-.26,3.82-.26,20.15,0,40.29-.03,60.44.03,3.84.01,5.11-.52,4.97-4.97-.14-4.39-.03-8.79-.03-13.18,0-4.67-.43-5.12-5-5.12h-64.76c-2.09-.03-2.1-.03-2.11-2.12,0-2.32-.02-4.63,0-6.95.02-1.86.13-1.99,2-2.19.79-.09,1.6-.06,2.4-.06h39.82ZM179.04,95.82c-4.87,0-9.75-.02-14.62,0-6.15.04-10.34,4.24-10.39,10.42-.03,4.23-.04,8.46,0,12.69.06,5.96,4.29,10.28,10.28,10.35,7.51.08,15.02.09,22.53,0,8.59-.11,15.35-6.12,16.69-14.6.44-2.79.25-5.58.23-8.37-.05-6.3-4.27-10.46-10.58-10.5-4.71-.03-9.43,0-14.14,0h0Z"/>
  <path class="cls-2" d="M6.12,71.15c0-21.09.03-42.19-.05-63.28,0-2.02.66-3.28,2.26-4.35C11.28,1.56,14.48.51,18.02.5c4.96-.02,9.91,0,14.87,0h79.4c.64,0,1.28-.03,1.92,0,1.9.14,2.97,1.09,3.1,2.99.12,1.75.12,3.52,0,5.27-.12,1.9-1.17,2.86-3.08,3.03-.71.06-1.44.02-2.16.02-20.95,0-41.9.02-62.85-.01-2.93,0-5.76.35-8.33,1.8-5.39,3.03-8.34,7.64-8.35,13.85-.05,28.53-.06,57.05,0,85.58.02,8.72,6.76,15.43,15.55,15.54,8.87.11,17.75.03,26.63.03h37.66c.64,0,1.28-.04,1.92.03,1.9.19,2.93,1.15,3.02,3.08.11,2.31.02,4.63.04,6.95,0,.92-.41,1.31-1.31,1.25-.48-.03-.96,0-1.44,0-33.42,0-66.85,0-100.27,0-2.27,0-4.44-.29-6.51-1.29-1.21-.58-1.77-1.32-1.75-2.76.09-5.35.04-10.71.04-16.06v-48.66h0Z"/>
  <path class="cls-2" d="M840.89,49.02h38.13c.88,0,1.77,0,2.62.17,2.75.52,4.51,2.66,4.53,5.38.01,2.72-1.72,4.83-4.45,5.47-.95.22-1.91.16-2.86.16-17.67,0-35.33.08-53-.03-6.37-.04-11.81,3.96-13.82,10.2-.49,1.52-.73,3.1-.72,4.71.03,3.2,0,6.39,0,9.59.01,3.31.8,4.12,4.08,4.12,16.95,0,33.89.02,50.84,0,4.53,0,8.73,1.05,12.36,3.83,4.78,3.66,7.4,8.51,7.56,14.57.08,3.27.07,6.55,0,9.82-.25,11.62-9.58,21.71-21.16,22.98-1.51.17-3.02.25-4.54.25h-74.82c-.48,0-.96-.02-1.44,0-.95.04-1.23-.46-1.23-1.34.02-2.88.04-5.75,0-8.63-.02-1.07.46-1.42,1.45-1.35.56.04,1.12,0,1.68,0,16.87,0,33.73,0,50.6,0,5.59,0,9.8-2.47,12.6-7.32,1.28-2.21,1.67-4.65,1.72-7.14.06-3.51.05-7.03,0-10.54-.03-2.86-1.02-3.8-3.97-3.8-17.99,0-35.97-.02-53.96,0-2.94,0-5.68-.66-8.3-1.97-1.28-.64-1.85-1.44-1.85-2.96.06-12.38.05-24.76,0-37.14,0-1.25.44-2.09,1.35-2.87,3.87-3.37,8.43-5.14,13.45-5.79,2.22-.28,4.45-.39,6.7-.39,12.15.03,24.3,0,36.45,0h0Z"/>
  <path class="cls-2" d="M257.12,93.92v-40.74c0-2.72.15-2.87,2.85-3.4,1.5-.3,3.02-.3,4.54-.29,3.2,0,6.4-.03,9.59.02,5.85.09,9.36,3.66,9.39,9.5,0,1.68.13,3.37-.02,5.03-.24,2.57,2.42,4.17,4.75,2.77,5.68-3.41,11.52-6.58,17.28-9.85,4.03-2.28,8.06-4.58,12.09-6.86.56-.31,1.11-.65,1.7-.88,1.64-.66,3.63.05,3.81,1.71.45,4.04.46,8.12-.02,12.16-.13,1.09-1.29,1.55-2.2,2.07-4.59,2.6-9.17,5.21-13.75,7.82-6.87,3.91-13.7,7.92-20.65,11.69-2.3,1.25-3.06,2.78-3.04,5.33.11,13.34.03,26.68.06,40.02,0,2.67-.69,5.03-2.49,7.04-1.81,2.03-4.12,3.07-6.77,3.14-3.51.1-7.03.24-10.54-.16-1.69-.19-3.24-.78-4.79-1.45-1.35-.58-1.84-1.47-1.82-2.97.07-7.27.04-14.54.04-21.81v-19.89h-.01Z"/>
  <path class="cls-2" d="M605.93,95.02v-42.17c0-.64.02-1.28,0-1.92-.02-.82.43-1.14,1.18-1.16.24,0,.48-.03.72-.03,6.15,0,12.31-.06,18.46.04,3.52.05,6.38,2.31,7.61,5.62.46,1.24.44,2.51.44,3.78v42.41c0,10.86-.05,21.72.04,32.58.02,2.71-1.35,5.14-3.84,6.01-.86.3-1.72.3-2.6.3h-19.66c-2.48,0-2.36.11-2.36-2.33v-43.13h.01Z"/>
  <path class="cls-2" d="M617.05,8.54c2.8,0,5.6-.03,8.39,0,5.23.08,8.74,3.54,8.8,8.73.05,4.39.06,8.79,0,13.18-.07,4.9-3.5,8.53-8.43,8.66-5.99.15-11.99.06-17.98.03-1.75,0-1.89-.18-1.89-1.96-.02-8.95-.02-17.89,0-26.84,0-1.69.07-1.76,1.76-1.78,3.12-.04,6.23-.01,9.35-.01h0Z"/>
  <path class="cls-1" d="M469.7,4.6v134.16c-3.6-2.34-5.64-5.27-6.27-9.16-.17-1.02-.17-2.07-.17-3.11,0-35.7.01-71.4-.02-107.1,0-5.38,1.59-10.03,5.39-13.89.22-.22.48-.4,1.08-.91h-.01Z"/>
  <path class="cls-1" d="M604.33,50c.44,1.04.28,1.85.28,2.63.01,28.28,0,56.56,0,84.85v.48c0,2.68-.76,3.17-3.22,2.03-1.79-.82-2.94-2.19-3.25-4.16-.14-.86-.16-1.75-.16-2.62V59.63c0-.8,0-1.6.11-2.39.53-3.68,2.61-6.05,6.24-7.24h0Z"/>
  <path class="cls-1" d="M4.69,6.1v131.19c-2.33-1.47-3.42-3.52-4.16-5.79-.39-1.21-.53-2.48-.53-3.78C0,90.89,0,54.05,0,17.22,0,13.33,1.19,9.84,3.6,6.78c.23-.29.41-.69,1.09-.67h0Z"/>
  <path class="cls-1" d="M336.28,51.6v84.96c-.74.22-1.05-.36-1.42-.72-3.43-3.32-5.35-7.33-5.36-12.15-.02-20.05-.03-40.11,0-60.16,0-5,2.28-8.83,6.77-11.93h.01Z"/>
  <path class="cls-1" d="M255.63,137.33c-3.33-2.6-5.13-5.64-5.71-9.4-.19-1.26-.21-2.55-.21-3.82,0-20.61,0-41.23,0-61.84,0-2.59.2-5.11,1.63-7.37,1.04-1.64,2.33-2.97,4.31-4.01v86.44h0Z"/>
  <path class="cls-1" d="M654.73,54.89v78.3c-.8,0-1.04-.58-1.38-.98-3.34-3.92-5.08-8.48-5.1-13.61-.05-16.37-.05-32.73,0-49.1.01-5.22,1.79-9.85,5.22-13.81.29-.34.51-.83,1.25-.8h.01Z"/>
  <path class="cls-1" d="M130.22,86.07v52.05c-3.03-2.04-4.66-4.64-5.46-7.8-.31-1.24-.42-2.51-.42-3.8.01-10.22.02-20.44,0-30.66,0-3.94,1.35-7.17,4.63-9.48.31-.22.62-.51,1.25-.32h0Z"/>
  <path class="cls-1" d="M781.55,57.12v39.5c-1.17-.4-1.78-1.23-2.46-1.96-2.4-2.61-3.9-5.73-4.06-9.23-.26-5.8-.54-11.63.74-17.38.77-3.46,2.11-6.67,4.22-9.54.36-.49.64-1.09,1.55-1.39h.01Z"/>
  <path class="cls-1" d="M604.5,9v29.59c-3.52-.43-6.46-3.51-6.6-7.35-.18-4.93-.19-9.88,0-14.81.15-3.88,2.98-6.88,6.6-7.43Z"/>
  <path class="cls-1" d="M781.64,134.57c0,1.51-.01,3.02,0,4.53.01.81-.37,1.16-1.15,1.13h-.24c-3.93.28-5.22-.52-5.35-3.28-.24-4.97,1.73-7.87,5.37-8.02,1.04-.04,1.42.33,1.38,1.35-.05,1.43-.01,2.86-.01,4.29h0Z"/>
  <path class="cls-1" d="M130.34,50.58c0,3.24-.02,6.26,0,9.29,0,1.01-.35,1.49-1.39,1.4-.64-.05-1.28.04-1.91-.05-1.58-.22-2.56-1.32-2.67-2.9-.22-3.26,2.28-6.66,5.96-7.74Z"/>
  <polygon class="cls-1" points="609.71 179.21 609.71 179.21 609.72 179.2 609.71 179.21"/>
  <path class="cls-1" d="M610.76,178.35l-.03.03s.02-.01.03-.02h0Z"/>
  <g>
    <path class="cls-2" d="M149.15,219.93c-3.41,0-6.81-.03-10.21,0-3.5.04-5.14,2.15-4.33,5.52.94,3.97,3.13,5.63,7.24,5.78,3.39.12,6.08-.89,7.89-3.89.6-1,1.56-1.56,2.74-1.68,1.84-.19,3.7-.26,5.54,0,2.93.42,4.34,3.18,2.95,5.8-1.14,2.14-2.86,3.74-4.92,5-1.84,1.13-3.84,1.92-5.94,2.4-5.18,1.17-10.4,1.42-15.6.15-5.4-1.32-9.49-4.33-11.9-9.44-.42-.89-.64-1.78-.63-2.77.03-6.58.02-13.16,0-19.74,0-.99.21-1.89.59-2.79,2.95-7.01,8.48-10.54,15.75-11.78,4.25-.72,8.42-.4,12.48.94,5.53,1.83,9.33,5.52,11.4,10.99,1.26,3.34,2.02,6.75,1.96,10.37-.06,3.65-1.32,5.12-5.03,5.13-3.33,0-6.66,0-9.99,0h0ZM142.28,210.64v-.02c1.18,0,2.37.09,3.54-.02,2.86-.29,4.43-3.1,3.21-5.7-.41-.87-.99-1.63-1.76-2.24-2.52-1.99-6.9-2.21-9.59-.46-.89.57-1.56,1.34-2.07,2.26-1.64,2.93,0,5.98,3.36,6.18,1.1.06,2.21,0,3.31,0h0Z"/>
    <path class="cls-2" d="M356.21,219.93c-3.33,0-6.67.16-9.99-.05-3.18-.19-5.43,2.56-4.43,5.68,1.22,3.87,3.13,5.52,7.13,5.68,3.37.13,6.12-.82,7.94-3.81.71-1.17,1.8-1.75,3.14-1.8,1.63-.05,3.27-.16,4.88,0,3.27.31,4.76,3.36,3.08,6.18-1.57,2.63-3.83,4.55-6.65,5.67-7.34,2.93-14.82,3.31-22.32.67-3.6-1.27-6.39-3.65-8.36-6.95-.47-.79-.71-1.58-.71-2.51.02-7.84.02-15.67,0-23.52,0-1,.23-1.88.7-2.74,2.59-4.73,6.53-7.73,11.7-9.19,5.51-1.56,10.96-1.48,16.35.48,4.93,1.8,8.35,5.18,10.42,9.98,1.69,3.94,2.43,8.04,2.21,12.31-.11,2.35-1.67,3.88-4.2,3.92-3.63.06-7.25.02-10.88.02h0ZM349.4,210.64h0c1.03,0,2.06.05,3.09,0,3.47-.17,5.14-3.28,3.39-6.29-.86-1.49-2.17-2.41-3.77-2.89-1.71-.51-3.46-.61-5.23-.14-1.89.51-3.23,1.61-4.21,3.3-1.75,3.02.8,6.11,3.41,6.03,1.1-.04,2.21,0,3.31,0h0Z"/>
    <path class="cls-2" d="M394.05,198.64c3.18-4.85,7.95-6.44,13.13-6.41,4.9.03,9.43,1.75,12.98,5.42,1.64,1.69,2.61,3.74,2.98,6.07.56,3.58.89,7.18.83,10.81-.08,6.06-.03,12.13-.02,18.19,0,1.58-.21,3.1-1.25,4.38-2.4,2.96-9.23,2.9-11.59-.1-.92-1.17-1.17-2.51-1.17-3.95.02-6.88,0-13.76,0-20.64,0-2.09-.21-4.13-.94-6.1-1.12-3.06-3.23-4.9-6.56-5.14-3.09-.22-5.89,1.45-7.34,4.41-1.14,2.31-1.45,4.8-1.45,7.33v18.86c0,.67.02,1.33-.04,2-.27,3.34-2.29,5.26-5.62,5.32-1.19.02-2.38.06-3.55-.08-1.62-.2-2.01-.69-2.01-2.31,0-13.68,0-27.37,0-41.05,0-1.71.31-2.1,1.98-2.3,1.62-.19,3.27-.24,4.87.02,2.09.32,3.39,1.69,4.08,3.64.17.47.06,1.04.65,1.64h0Z"/>
    <path class="cls-2" d="M92.79,220.63c0-4.66,0-9.31,0-13.97,0-2.9-.58-3.6-3.45-4.13-1.14-.2-1.66-.66-1.6-1.88.08-1.92.06-3.84,0-5.76-.02-.96.28-1.43,1.31-1.64,2.94-.61,3.61-1.48,3.6-4.58,0-2.68.22-5.31,1.06-7.87,1.74-5.25,5.43-8.06,10.88-8.78,3.5-.45,6.93.2,10.38.47.8.06.95.53.95,1.19,0,2.06-.02,4.14,0,6.2,0,.91-.44,1.13-1.25,1.06-.73-.06-1.48-.07-2.21-.04-3.25.16-5.41,2.02-5.92,5.24-.19,1.23-.2,2.51-.14,3.76.1,2,1.19,3.07,3.18,3.32.22.03.44.05.67.02,3.47-.35,5.37,2.24,4.5,6.31-.36,1.68-1.64,2.58-3.31,2.89-.57.1-1.18.06-1.77.13-1.69.21-2.67,1.19-2.85,2.87-.07.66-.05,1.32-.05,1.99v26.39c0,.59.03,1.19-.02,1.77-.19,2.34-1.35,3.45-3.71,3.5-2.15.05-4.29.04-6.43,0-2.57-.05-3.8-1.25-3.82-3.83-.04-4.88,0-9.76,0-14.63h0Z"/>
    <path class="cls-2" d="M496.89,219.55c0-4.29,0-8.57,0-12.86,0-2.69-.58-3.45-3.27-4.14-.83-.21-1.06-.62-1.05-1.39.03-2.22.04-4.43,0-6.66,0-.81.31-1.1,1.09-1.33,2.44-.75,2.93-1.44,2.92-3.98,0-2.6.24-5.17.93-7.68,1.54-5.67,5.58-8.95,11.45-9.53,3.43-.33,6.79.26,10.17.52.64.05.9.4.9,1.01v6.43c0,.75-.31,1.07-1.06,1.02-.74-.05-1.48-.07-2.21-.06-3.37.09-5.7,2.04-6.06,5.01-.37,3.15,1.56,6.08,4.59,6.97.85.25,1.73.42,2.63.37.74-.04,1.07.32,1.07,1.06,0,2.37,0,4.73,0,7.1,0,.89-.51,1.13-1.29,1.12-1.35-.03-2.66.19-3.81.94-2.18,1.41-3.14,3.43-3.14,5.99,0,7.1,0,14.19,0,21.29,0,.74.03,1.48-.02,2.21-.25,3.67-3.15,6.17-7.09,6.12-3.77-.04-6.63-2.61-6.71-6.24-.09-4.43-.02-8.87-.02-13.3h-.02Z"/>
    <path class="cls-2" d="M19.15,206.01v-29.72c0-2.38.41-2.82,2.78-2.94,1.19-.06,2.37-.06,3.55.02,2.76.19,4.81,2.24,5.05,4.99.06.66.03,1.33.03,2v40.14c0,.67-.03,1.33,0,2,.18,3.32,2.37,5.5,5.7,5.53,5.4.05,10.8,0,16.2.02.81,0,1.62,0,2.42.21,2.75.77,4.39,3.18,4.07,6.06-.28,2.58-2.35,4.56-5.04,4.78-.59.05-1.19.03-1.78.03h-28.64c-.44,0-.89,0-1.33,0-2.63-.11-3.05-.54-3.05-3.15v-29.94l.03-.02Z"/>
    <path class="cls-2" d="M551.27,216.19c0-3.55.04-7.1-.02-10.65-.02-1.31.3-2.45.94-3.57,1.94-3.37,4.57-6,8.11-7.62,7.79-3.56,15.27-2.6,22.38,1.86,2.64,1.66,4.39,4.15,5.43,7.09,1.11,3.13-.56,5.93-3.86,6.28-1.69.18-3.41.14-5.09,0-1.94-.15-3.31-1.21-3.96-3.07-.47-1.33-1.07-2.59-2.11-3.6-2.97-2.91-6.74-2.26-8.49,1.47-1.19,2.53-1.53,5.26-1.75,7.97-.36,4.29-.2,8.56.74,12.79.24,1.08.57,2.15,1.07,3.14,1.75,3.43,6.26,4.02,8.93,1.19.88-.94,1.33-2.1,1.73-3.31.92-2.81,2.25-3.78,5.22-3.82,1.11-.02,2.22-.06,3.32.02,3.54.25,5.39,3.06,4.2,6.4-1.46,4.11-4.18,7.18-8.17,8.89-6.22,2.68-12.6,3.01-19,.56-4.13-1.58-7.04-4.53-9.14-8.35-.44-.81-.5-1.68-.49-2.57,0-3.69,0-7.4,0-11.09v.02Z"/>
    <path class="cls-2" d="M438.8,217.29c0-3.33,0-6.66,0-9.98,0-3.54-1.09-4.66-4.56-4.77-.22,0-.44,0-.67,0-1.88-.16-2.15-.42-2.17-2.28-.02-1.78.03-3.56,0-5.32-.03-1.15.53-1.61,1.59-1.64.74-.02,1.48.02,2.22-.06,2.18-.25,3.45-1.62,3.59-3.81.05-.74.02-1.48.02-2.22,0-1.83.87-3.12,2.56-3.77,2.14-.82,4.29-1.65,6.47-2.31,2.43-.73,4.51.66,4.81,3.18.18,1.54.09,3.1.14,4.65.08,2.87,1.34,4.16,4.22,4.31.67.04,1.33,0,2,.02.59,0,1.17.11,1.71.4,1.69.91,2.38,2.79,1.98,5.45-.26,1.74-1.36,2.95-3.15,3.27-.94.17-1.92.11-2.87.15-2.5.12-3.82,1.37-3.86,3.89-.06,3.99-.02,7.99-.03,11.98,0,2.15.05,4.29-.15,6.43-.08.94-.06,1.94.09,2.87.46,2.69,1.9,3.82,4.64,3.63.83-.06,1.63.02,2.41.2,1.81.42,2.89,1.81,2.94,3.68.06,1.98-.98,3.43-2.84,3.98-.14.04-.29.11-.43.11-3.98.13-7.94,1.01-11.93.2-3.59-.72-6.19-2.7-7.55-6.16-.82-2.09-1.16-4.27-1.16-6.51v-9.55h.02l-.04-.02Z"/>
    <path class="cls-2" d="M68.18,216.15v-19.06c0-2.52.78-3.48,3.26-3.75,1.31-.14,2.67-.13,3.98,0,2.43.23,4.54,2.35,4.85,4.77.08.66.06,1.32.06,1.99v32.14c0,.81.04,1.65-.16,2.43-.45,1.81-1.54,3.22-3.31,3.92-2.2.86-4.49.77-6.72.07-1.43-.44-2.04-1.37-2.01-2.99.09-6.5.04-13,.04-19.51h0Z"/>
    <path class="cls-2" d="M528.07,216.12v-19.75c0-1.89.44-2.55,2.27-2.92,1.75-.36,3.56-.39,5.3,0,2.56.58,4.24,2.89,4.32,5.77.06,2.36.02,4.73.02,7.1,0,8.73,0,17.45,0,26.18,0,2.03-.53,3.8-2.1,5.16-1.94,1.69-6.62,1.98-8.84.69-.95-.56-.98-1.35-.97-2.27,0-6.66,0-13.31,0-19.97h0Z"/>
    <path class="cls-2" d="M473.01,216.17v-19.96c0-2.19.46-2.7,2.65-2.9.95-.08,1.93-.07,2.88-.04,3.36.12,5.69,2.35,5.89,5.7.09,1.55.03,3.1.03,4.66,0,9.61,0,19.22,0,28.83,0,2.29-.62,4.28-2.6,5.56-2.5,1.63-5.2,1.34-7.9.54-1.01-.3-.96-1.16-.96-1.99,0-4.43,0-8.87,0-13.3v-7.1h0Z"/>
    <path class="cls-1" d="M17.94,238.01c-1.64-.92-2.19-2.22-2.45-3.7-.1-.57-.06-1.18-.06-1.77,0-17.59,0-35.18-.02-52.77,0-1.76.25-3.39,1.51-4.71.24-.25.46-.59,1.02-.43v63.37h0Z"/>
    <path class="cls-2" d="M528.07,179.16c0-1.11.08-2.22-.02-3.32-.12-1.3.52-1.97,1.65-2.22,2.18-.48,4.43-.57,6.58.02,2.56.71,4.25,3.41,4,5.98-.29,2.93-2.44,5.16-5.31,5.34-1.55.1-3.12.1-4.65-.08-1.83-.22-2.23-.79-2.25-2.6,0-1.04,0-2.07,0-3.1h0Z"/>
    <path class="cls-2" d="M477.57,173.38c.74,0,1.48-.07,2.21,0,2.75.33,4.93,2.81,5.02,5.63.08,2.66-1.92,5.35-4.51,5.83-1.81.33-3.68.27-5.52.03-1.45-.19-1.73-.58-1.75-2.03-.03-2.43-.03-4.87,0-7.3.02-1.51.25-1.83,1.69-2.08.94-.17,1.91-.14,2.86-.19v.1h0Z"/>
    <path class="cls-1" d="M381.29,194.22v43.84c-1.46-.78-1.99-1.94-2.31-3.21-.16-.64-.14-1.32-.14-1.98,0-11.17,0-22.33,0-33.5,0-1.99.37-3.77,2.46-5.16h0Z"/>
    <path class="cls-1" d="M471.7,194.43v43.43c-1.44-1.03-2.06-2.19-2.3-3.6-.09-.57-.07-1.18-.07-1.77,0-10.93,0-21.85-.02-32.78,0-1.99.41-3.73,2.39-5.3h0Z"/>
    <path class="cls-1" d="M526.55,237.29c-1.07-1.06-1.67-2.19-1.67-3.55-.02-11.74-.02-23.49,0-35.23,0-1.29.55-2.39,1.54-3.33.51,1.6.63,39.39.12,42.12h0Z"/>
    <path class="cls-1" d="M66.84,195.24v41.86c-1.34-1.47-1.62-2.92-1.61-4.48,0-4.06,0-8.12,0-12.18v-20.61c0-1.57.21-3.05,1.61-4.58Z"/>
    <path class="cls-1" d="M550.11,204.39v23.77c-3.68-7.91-3.55-15.84,0-23.77Z"/>
    <path class="cls-1" d="M328.3,228.8c-2.95-7.93-2.68-15.87-.04-24.15.51,1.97.59,21.76.04,24.15Z"/>
    <g>
      <path class="cls-2" d="M257.7,216.28c0-3.18.02-6.36,0-9.54,0-1.06.22-2.03.67-2.99,3.63-7.96,11.73-12.46,20.42-11.38,4.25.53,8.25,1.66,11.7,4.33,1.06.82,1.96,1.81,2.74,2.89,2.17,3.04,1.5,6.96-1.49,8.97-2.97,2-7.28,1.13-9.2-1.88-.4-.62-.68-1.31-1.03-1.96-.58-1.05-1.3-1.97-2.33-2.62-2.99-1.88-5.82-1.1-7.37,2.05-.89,1.81-1.33,3.76-1.56,5.75-.62,5.31-.68,10.62.6,15.86.19.79.48,1.56.82,2.29.82,1.77,1.99,3.1,4.15,3.17,2.38.07,4.4-.61,5.63-2.8.4-.7.68-1.48,1.01-2.21,1.61-3.52,5.63-4.89,8.93-3.05,3.31,1.84,4.18,5.93,1.96,9.18-1.71,2.52-3.98,4.38-6.8,5.5-5.6,2.24-11.31,2.68-17.14.88-5.28-1.65-8.87-5.14-11.15-10.09-.42-.9-.56-1.82-.55-2.8.02-3.18,0-6.36,0-9.54l-.02-.02Z"/>
      <path class="cls-1" d="M256.55,206.02v20.35c-2.81-4.29-2.95-15.09,0-20.35Z"/>
    </g>
    <path class="cls-1" d="M197.42,231.19c-1.65-2.25-2.75-4.79-2.88-7.6-.09-2.11.96-3.78,3.09-4.86.46,2.12.16,4.15.21,6.15.06,2.05,0,4.1,0,6.15-.15.06-.3.1-.44.16h0Z"/>
    <path class="cls-1" d="M120.69,206.95v19.92c-2.31-6.59-2.04-13.2,0-19.92Z"/>
    <path class="cls-1" d="M197.85,185.84v14.65c-2.71-2.97-2.71-10.72,0-14.65h0Z"/>
    <path class="cls-1" d="M471.71,183.84c-3.7-2.19-3.72-6.9,0-9.46v9.46Z"/>
    <path class="cls-1" d="M491.35,193.4v8.6c-1.66-.31-2.27-.94-2.46-2.5-.45-3.66,0-4.9,2.46-6.1Z"/>
    <path class="cls-1" d="M526.75,183.5c-3.09-2.36-3.09-6.3,0-8.69v8.69Z"/>
    <path class="cls-1" d="M430.23,193.71c.15,2.87.17,5.38,0,8.1-1.53-.71-1.85-1.85-1.97-3.12-.21-2.3.18-3.4,1.98-4.98h0Z"/>
    <path class="cls-1" d="M66.91,174.98v8.01c-2.59-1.51-2.7-5.17,0-8.01Z"/>
    <path class="cls-1" d="M86.36,201.84c-2.19-2.31-2.15-5.96,0-7.87v7.87Z"/>
    <g>
      <path class="cls-2" d="M305.46,179.03c0-.95.07-1.92-.02-2.87-.12-1.27.53-1.98,1.59-2.31,2.59-.82,5.26-.94,7.78.06,2.5,1,3.72,3.72,3.2,6.37-.54,2.72-2.58,4.56-5.37,4.69-1.32.06-2.68.15-3.97-.05-2.86-.44-3.5-1.36-3.23-3.47.1-.8.02-1.62.02-2.43h0Z"/>
      <path class="cls-1" d="M304.16,175.18v7.66c-2.37-1.67-2.46-4.94,0-7.66Z"/>
      <path class="cls-2" d="M305.54,213.12v-18.87c0-2.42.88-3.53,3.27-3.81,1.39-.16,2.82-.17,4.2,0,2.54.29,4.47,2.37,4.86,5.06.07.51.06,1.04.06,1.55v32.4c0,1.36-.17,2.65-.87,3.84-.71,1.19-1.69,2.1-3.01,2.5-2.17.65-4.38.68-6.53-.12-1.36-.5-2.06-1.4-2.04-3.02.08-6.51.04-13.02.04-19.54h.02Z"/>
      <path class="cls-1" d="M304.04,233.74c-.8-.78-1.07-1.65-1.17-2.6-.06-.58-.06-1.18-.06-1.77v-32.33c0-1.46-.05-2.93,1.13-4.15.45,1.6.56,38.23.1,40.85h0Z"/>
    </g>
    <path class="cls-2" d="M77.54,173.96c-2.53-1.07-5.18-.92-7.8-.18-.91.26-1.47.81-1.57,1.69h-.03l.04,4.46v1.69c0,2.27.61,3.05,2.87,3.29,1.46.16,2.95.13,4.43.05,2.55-.16,4.71-2.19,5.18-4.7.46-2.51-.8-5.3-3.11-6.29h0Z"/>
    <path class="cls-2" d="M241.59,206.33c-2.96-1.87-6.18-3.18-9.55-4.09-3.92-1.06-7.86-2.06-11.8-3.06-1.95-.5-3.8-1.21-5.44-2.41-1.18-.85-2.09-1.95-2.41-3.36-.81-3.62.06-7.88,4.43-9.82,2.48-1.1,5.1-1.56,7.8-1.27,3.64.4,6.67,1.94,7.86,5.57,1.58,4.81,6.55,4.95,10.18,3.69,2.83-.98,3.92-4.25,2.74-7.26-1.84-4.72-5.16-8.11-9.84-10-10.58-4.25-20.6-2.52-30.12,3.23-2.43,1.47-4.23,3.68-5.65,6.17-.56.99-.84,2-.83,3.16.05,4.06.07,8.14-.02,12.2-.04,1.52.39,2.73,1.4,3.81.91.98,1.85,1.91,2.93,2.69,2.6,1.88,5.47,3.22,8.51,4.24,3.72,1.25,7.57,2.02,11.34,3.07,2.65.74,5.23,1.63,7.49,3.25,3.09,2.21,3.97,5.56,2.35,8.79-.82,1.66-2.16,2.8-3.81,3.57-2.81,1.31-5.81,1.79-8.87,1.66-6.02-.26-9.03-3.06-10.18-7.56-.09-.36-.19-.72-.34-1.06-.85-1.92-2.33-3.09-4.4-3.3-1.61-.17-3.25-.06-4.88-.03-.94.02-1.44.42-1.53,1.28h-.05v10.78h0c0,1.28.57,2.21,1.49,3.12,2.33,2.29,5.1,3.83,8.18,4.72,9.25,2.68,18.45,2.32,27.45-1.06,6.91-2.59,11.07-7.61,12.37-14.98,1.22-6.93-.9-11.97-6.84-15.73l.03-.03Z"/>
    <path class="cls-1" d="M751.02,225.4l-.97,1.23c2.13,2.74,4.26,5.48,6.39,8.22.42.54.85,1.07,1.3,1.57.75.81,1.58,1.43,2.76,1.65-.56-1-4.59-6.34-9.48-12.67Z"/>
    <path class="cls-2" d="M770.46,229.68c-.29-1.52-1.07-2.79-2.03-4.03-3.03-3.9-6.05-7.79-9.08-11.69,2.32-2.82,4.64-5.63,6.96-8.45.37-.45.77-.91,1.09-1.41,1.67-2.65,1.71-5.73-.04-7.6-.95-1.02-2.06-1.92-3.25-2.66-2.05-1.27-3.54-.84-5.31,1.31-2.41,2.93-4.82,5.86-7.23,8.79-2.02-2.6-4.03-5.19-6.05-7.79-.36-.46-.72-.96-1.14-1.37-2.21-2.21-5.21-2.92-7.42-1.63-1.2.7-2.33,1.59-3.31,2.59-1.69,1.72-1.6,3.27.11,5.47,3.25,4.18,6.49,8.35,9.73,12.52-4.28,5.21-8.53,10.42-12.87,15.57-1.2,1.43-1.32,2.67-.64,3.98,1.07,2.07,2.8,3.46,4.95,4.26,1.31.48,2.74.29,4.15-.31,1.42-.62,2.49-1.66,3.49-2.87,2.9-3.53,5.81-7.05,8.71-10.58,3.22,4.13,6.43,8.26,9.6,12.43,1.13,1.49,2.32,1.88,3.74,1.5,2.26-.59,3.99-1.98,5.24-3.89.76-1.17.88-2.61.61-4.12Z"/>
    <path class="cls-1" d="M742.07,213.78c-.31-.4-.62-.79-.93-1.18-.03-.06-.07-.11-.1-.17,0,0-.01.01-.02.02-4.87-6.16-8.93-11.07-9.49-11.51-.07,1.83,1.01,3.14,2.04,4.47,2.16,2.78,4.26,5.53,6.4,8.3-3.01,3.65-6.01,7.3-9.02,10.96-.43.53-.86,1.06-1.25,1.62-.63.91-1.05,1.86-1.01,3.06.96-.87,6.33-7.24,12.25-14.42l1.11-1.14Z"/>
    <g>
      <path class="cls-2" d="M709.56,218.39c-3.33,0-6.67.16-9.99-.05-3.18-.19-5.43,2.56-4.43,5.68,1.22,3.87,3.13,5.52,7.13,5.68,3.37.13,6.12-.82,7.94-3.81.71-1.17,1.8-1.75,3.14-1.8,1.63-.05,3.27-.16,4.88,0,3.27.31,4.76,3.36,3.08,6.18-1.57,2.63-3.83,4.55-6.65,5.67-7.34,2.93-14.82,3.31-22.32.67-3.6-1.27-6.39-3.65-8.36-6.95-.47-.79-.71-1.58-.71-2.51.02-7.84.02-15.67,0-23.52,0-1,.23-1.88.7-2.74,2.59-4.73,6.53-7.73,11.7-9.19,5.51-1.56,10.96-1.48,16.35.48,4.93,1.8,8.35,5.18,10.42,9.98,1.69,3.94,2.43,8.04,2.21,12.31-.11,2.35-1.67,3.88-4.2,3.92-3.63.06-7.25.02-10.88.02h0ZM702.76,209.1h0c1.03,0,2.06.05,3.09,0,3.47-.17,5.14-3.28,3.39-6.29-.86-1.49-2.17-2.41-3.77-2.89-1.71-.51-3.46-.61-5.23-.14-1.89.51-3.23,1.61-4.21,3.3-1.75,3.02.8,6.11,3.41,6.03,1.1-.04,2.21,0,3.31,0h0Z"/>
      <path class="cls-1" d="M681.66,227.26c-2.95-7.93-2.68-15.87-.04-24.15.51,1.97.59,21.76.04,24.15Z"/>
    </g>
    <g>
      <path class="cls-2" d="M801.05,214.51c0-3.18.02-6.36,0-9.54,0-1.06.22-2.03.67-2.99,3.63-7.96,11.73-12.46,20.42-11.38,4.25.53,8.25,1.66,11.7,4.33,1.06.82,1.96,1.81,2.74,2.89,2.17,3.04,1.5,6.96-1.49,8.97-2.97,2-7.28,1.13-9.2-1.88-.4-.62-.68-1.31-1.03-1.96-.58-1.05-1.3-1.97-2.33-2.62-2.99-1.88-5.82-1.1-7.37,2.05-.89,1.81-1.33,3.76-1.56,5.75-.62,5.31-.68,10.62.6,15.86.19.79.48,1.56.82,2.29.82,1.77,1.99,3.1,4.15,3.17,2.38.07,4.4-.61,5.63-2.8.4-.7.68-1.48,1.01-2.21,1.61-3.52,5.63-4.89,8.93-3.05,3.31,1.84,4.18,5.93,1.96,9.18-1.71,2.52-3.98,4.38-6.8,5.5-5.6,2.24-11.31,2.68-17.14.88-5.28-1.65-8.87-5.14-11.15-10.09-.42-.9-.56-1.82-.55-2.8.02-3.18,0-6.36,0-9.54l-.02-.02Z"/>
      <path class="cls-1" d="M799.9,204.24v20.35c-2.81-4.29-2.95-15.09,0-20.35Z"/>
    </g>
    <g>
      <path class="cls-2" d="M778.57,180.95c0-.95.07-1.92-.02-2.87-.12-1.27.53-1.98,1.59-2.31,2.59-.82,5.26-.94,7.78.06,2.5,1,3.72,3.72,3.2,6.37-.54,2.72-2.58,4.56-5.37,4.69-1.32.06-2.68.15-3.97-.05-2.86-.44-3.5-1.36-3.23-3.47.1-.8.02-1.62.02-2.43h0Z"/>
      <path class="cls-1" d="M777.27,177.11v7.66c-2.37-1.67-2.46-4.94,0-7.66Z"/>
      <path class="cls-2" d="M778.65,215.05v-18.87c0-2.42.88-3.53,3.27-3.81,1.39-.16,2.82-.17,4.2,0,2.54.29,4.47,2.37,4.86,5.06.07.51.06,1.04.06,1.55v32.4c0,1.36-.17,2.65-.87,3.84-.71,1.19-1.69,2.1-3.01,2.5-2.17.65-4.38.68-6.53-.12-1.36-.5-2.06-1.4-2.04-3.02.08-6.51.04-13.02.04-19.54h.02Z"/>
      <path class="cls-1" d="M777.15,235.67c-.8-.78-1.07-1.65-1.17-2.6-.06-.58-.06-1.18-.06-1.77v-32.33c0-1.46-.05-2.93,1.13-4.15.45,1.6.56,38.23.1,40.85h0Z"/>
    </g>
    <path class="cls-1" d="M619.78,175.61l-3.95,55.46c-.09,1.29.27,2.51.96,3.5l4.5-62.36c-.85.89-1.42,2.07-1.51,3.4Z"/>
    <path class="cls-2" d="M672.67,231.07l-3.95-55.46c-.21-3.02-2.84-5.29-5.85-5.08l-3.34.24c-2.5-.22-4.91,1.32-5.69,3.82l-9.59,30.59-9.59-30.59c-.78-2.5-3.19-4.03-5.69-3.82l-3.34-.24c-1.2-.09-2.34.23-3.29.83l-4.72,64.16c.88.8,2.01,1.32,3.29,1.41l4.15.3c3.02.21,5.64-2.06,5.85-5.08l1.64-25.93,9.07,13.42c1.62,2.4,5.19,2.29,6.66-.2l1.66-2.81,5.94-10.88,1.37,21.75.33,4.66c.21,3.02,2.84,5.29,5.85,5.08l4.15-.3c3.02-.21,5.29-2.84,5.08-5.85Z"/>
    <rect class="cls-2" x="698.49" y="171.37" width="11.2" height="15.62" rx="4.93" ry="4.93" transform="translate(305.24 -428.09) rotate(42.43)"/>
    <g>
      <path class="cls-1" d="M845.25,224.59v-20.35c-2.95,5.26-2.81,16.06,0,20.35Z"/>
      <path class="cls-2" d="M884.24,201.31c-1.05-2.1-2.43-3.93-4.04-5.47-.11-.11-.22-.22-.34-.33-3.74-3.42-8.71-5.27-14-5.05-8.06-.37-15.4,4.05-18.81,11.52-.44.96-.68,1.93-.67,2.99.03,3.18,0,6.36,0,9.54l.02.02c0,3.18,0,6.36,0,9.54,0,.97.13,1.9.55,2.8,2.28,4.95,5.87,8.44,11.15,10.09,2.6.8,5.17,1.14,7.72,1.09,2.55.05,5.12-.29,7.71-1.09,4.89-1.53,8.32-4.66,10.62-9.05,1.74-2.71,2.91-7.67,2.91-13.37s-1.13-10.48-2.82-13.22ZM872.51,221.94c-.04.2-.06.41-.1.61-.06.06-.1.13-.16.19-.63,1.75-1.46,3.23-2.42,4.35-.82,1.19-1.92,1.85-3.2,2.14-.15.04-.31.07-.46.09-.12.02-.24.04-.36.06-.03,0-.06,0-.09-.01-.05,0-.09.01-.14.01-4.43,0-8.02-6.7-8.02-14.96s3.59-14.96,8.02-14.96c.06,0,.12.01.18.02.02,0,.03-.01.05-.02.03,0,.06.02.09.03,2.65.19,4.97,2.78,6.36,6.64.05.05.09.1.14.14.04.2.06.4.1.59.7,2.22,1.11,4.8,1.11,7.56s-.4,5.31-1.09,7.52Z"/>
    </g>
  </g>
</svg>