<?xml version="1.0" encoding="UTF-8"?>
<svg xmlns="http://www.w3.org/2000/svg" viewBox="0 0 258.67 263.65">
  <defs>
    <style>
      .cls-1 {
        fill: #019c46;
        stroke-width: 0px;
      }
    </style>
  </defs>
  <g id="Capa_1" data-name="Capa 1">
    <path class="cls-1" d="M203.16,40.41c-18.73,17.83-40.07,40.94-60.33,65.09,3.38,1.98,8.71,4.44,15.6,5.22,12.29,1.4,21.62-3.43,24.91-5.35-2.23,2.58-8.5,9.12-18.91,11.61-13,3.1-23.61-2.23-27.4-4.49-6.47,7.9-12.96,16.12-19.42,24.71-.24.32-.48.64-.72.96,3.7,2.58,8.99,5.59,15.85,7.52,14.1,3.97,26.12.91,31.34-.78-2.22,1.36-4.64,2.62-7.28,3.72-18.96,7.9-37.91,2.73-47.17-.62-5.07,6.99-9.92,13.9-14.54,20.73,5.55,2.72,14.16,6.07,25.13,7.08,9.11.85,16.77-.2,22.11-1.37-5.1,2.22-11.99,4.56-20.35,5.67-13.94,1.85-25.5-.58-32.64-2.76-9.17,13.95-17.42,27.48-24.84,40.43,12.34.33,55.98-.02,91.72-31.81,30.83-27.41,38.53-62.88,42.78-82.43,5.45-25.07,5.85-48.81,4.16-63.14Z"/>
    <path class="cls-1" d="M94.1,218.42c-10.29-5-23.36.67-29.18,12.66s-2.2,25.76,8.09,30.76c10.29,5,23.36-.67,29.18-12.66,5.82-11.99,2.2-25.76-8.09-30.76ZM92.15,244.3c-2.69,5.53-8.71,8.14-13.45,5.84-4.75-2.31-6.42-8.66-3.73-14.18,2.69-5.53,8.71-8.14,13.45-5.84,4.75,2.31,6.42,8.66,3.73,14.18Z"/>
    <polygon class="cls-1" points="127.46 201.83 117.28 260.33 132.93 260.33 137.45 237.44 155.04 237.44 151.72 260.33 168.15 260.33 178.09 202.87 159.93 202.87 157.98 223.75 141.34 222.87 144.28 202.87 127.46 201.83"/>
    <path class="cls-1" d="M60.83,219.92c-.19-8.3-7.06-15.78-16.22-16.72H10.96L0,260.33h16.83l5.74-23.09h4.96l11.22,23.09h17.74l-14.61-22.83c10.63.49,19.18-8.1,18.96-17.59ZM25.3,228.64l2.61-13.96h12.65c3.21.6,5.64,3.15,5.97,6.16.4,3.53-2.15,7.03-5.97,7.79h-15.26Z"/>
    <path class="cls-1" d="M221.43,219.77h16.96c-.06-1.29-.53-8.23-6.39-13.43-6.55-5.81-14.54-4.74-15.65-4.57-1.62-.01-8.57.11-14.61,5.48-6.14,5.46-7.02,12.5-7.17,14.09-.05.67-.51,8.03,5.35,12.78,4.67,3.8,10.07,3.25,11.09,3.13,6.6-.54,11.29,4.6,10.96,8.74-.31,3.83-5,7.85-10.96,7.17-1.51-.41-7.24-2.13-10.83-7.83-2.06-3.28-2.54-6.49-2.66-8.26-4.2,1.97-8.4,3.94-12.6,5.91.37,2.07,1.85,8.95,8.09,14.35,7.61,6.59,16.57,6.01,18.26,5.87,1.35-.01,12.44-.28,18.91-9.26,3.35-4.65,3.93-9.51,4.04-11.87.1-1.56.12-5.47-2.35-9.26-2.92-4.49-7.55-6.09-10.52-6.66-1.42-.27-2.86-.17-4.29.07-4.46.76-8.41-1.94-9.06-5.28-.59-3.04,1.53-6.72,4.83-7.57,3.65-.94,7.95,1.82,8.61,6.39Z"/>
  </g>
  <g id="Capa_2" data-name="Capa 2">
    <path class="cls-1" d="M129.61,258.13C58.44,258.13.54,200.23.54,129.07S58.44,0,129.61,0s129.06,57.9,129.06,129.07-57.9,129.06-129.06,129.06ZM129.61,3C60.09,3,3.54,59.55,3.54,129.07s56.55,126.06,126.07,126.06,126.06-56.55,126.06-126.06S199.12,3,129.61,3Z"/>
    <path class="cls-1" d="M128.66,250.77c-66.58,0-120.74-54.16-120.74-120.74S62.08,9.29,128.66,9.29s120.74,54.16,120.74,120.74-54.16,120.74-120.74,120.74ZM128.66,11.29C63.18,11.29,9.92,64.56,9.92,130.03s53.27,118.74,118.74,118.74,118.74-53.27,118.74-118.74S194.13,11.29,128.66,11.29Z"/>
    <path class="cls-1" d="M65.78,233.09c-23.63-22.94-36.64-53.71-36.64-86.63,0-66.58,54.16-120.74,120.74-120.74,21.41,0,42.44,5.68,60.83,16.42l-1.01,1.73c-18.08-10.56-38.76-16.15-59.82-16.15-65.47,0-118.74,53.27-118.74,118.74,0,32.38,12.8,62.64,36.04,85.2l-1.39,1.43Z"/>
    <path class="cls-1" d="M107.63,226.82c-8.7,0-17.52-.95-26.35-2.92-12.1-2.71-23.63-7.2-34.26-13.36l1-1.73c10.45,6.06,21.79,10.48,33.69,13.14,63.9,14.28,127.5-26.08,141.78-89.98,7.06-31.6,1.17-63.92-16.58-91.01l1.67-1.1c18.06,27.54,24.04,60.41,16.86,92.54-12.55,56.14-62.54,94.41-117.82,94.42Z"/>
    <path class="cls-1" d="M230.7,207.53c-23.42-5.87-46-15.03-67.12-27.2l1-1.73c20.95,12.08,43.36,21.16,66.6,26.99l-.49,1.94Z"/>
    <path class="cls-1" d="M76.51,98.45c-13.48-20.38-24.02-42.44-31.33-65.55l1.91-.6c7.25,22.93,17.71,44.82,31.09,65.05l-1.67,1.1Z"/>
    <g>
      <path class="cls-1" d="M113.08,133.71c-2.25-4.02-9.03-17.32-5.19-33.22,1.41-5.84,3.87-10.43,6.07-13.7-1.32,6-2.68,16.5.98,28.37,1.29,4.18,2.95,7.73,4.61,10.65-.28.34-.55.68-.83,1.02,8.91-10.81,17.79-21.25,26.62-31.32-.27.31-.54.62-.81.92-1.78-3.01-4.22-8.06-5.12-14.73-1.31-9.74,1.42-17.44,2.92-20.94-.1,4.56.42,12.61,5.1,20.74,1.47,2.55,3.09,4.66,4.64,6.38,15.02-16.88,35.23-34.59,49.72-49.37-11.38,1.19-33.65,5.86-52.86,13.12-16.37,6.19-74.06,27.98-91.57,78.52-6.91,19.95-7.02,42.82-7.04,48.78-.06,13.9,1.52,25.54,3.11,33.93,10.78-15.46,22.34-31.34,34.72-47.53-.19.25-.38.5-.58.75-2.29-2.22-5-5.45-7.06-9.85-5.83-12.43-1.97-24.63-.78-27.98-.24,3.97-.19,12.49,4.7,21.33,2.57,4.65,5.67,7.93,8.09,10.07"/>
      <path class="cls-1" d="M113.08,133.71s0,0,0,0"/>
    </g>
  </g>
</svg>